<svg width="400" height="48" viewBox="0 0 400 48" fill="none" xmlns="http://www.w3.org/2000/svg">
<g clip-path="url(#clip0_1537_50689)">
<path d="M17.6109 18.7891C16.5127 17.4964 14.9418 16.7655 12.8964 16.7655C8.74 16.7655 5.68364 20.1236 5.68364 24.7527C5.68364 29.3818 8.74182 32.74 12.7236 32.74C14.9418 32.74 16.7291 31.7491 17.8691 30.0709L22.4345 33.4727C20.3673 36.4218 16.8364 37.7782 13.4345 37.7782C5.66182 37.7782 0 32.6964 0 24.7527C0 16.8091 5.66182 11.7273 13.4345 11.7273C16.2127 11.7273 19.7436 12.6746 21.8527 15.3655L17.6109 18.7891Z" fill="white"/>
<path d="M31.9728 19.6945C37.2473 19.6945 41.4673 23.2036 41.4673 28.6291C41.4673 34.0545 37.2473 37.5636 31.9728 37.5636C26.6982 37.5636 22.4782 34.0545 22.4782 28.6291C22.4564 23.2036 26.6764 19.6945 31.9728 19.6945ZM31.9728 32.9364C34.6219 32.9364 36.1928 31.1927 36.1928 28.6309C36.1928 26.0691 34.6001 24.3255 31.9728 24.3255C29.3455 24.3255 27.7528 26.0691 27.7528 28.6309C27.7528 31.1927 29.3237 32.9364 31.9728 32.9364Z" fill="white"/>
<path d="M43.4054 20.1255H48.6799V22.86H48.7454C49.8654 20.7927 51.3509 19.7164 53.6763 19.7164C54.2799 19.7164 54.9472 19.76 55.4418 19.8891V24.6691C54.709 24.4546 53.9563 24.3255 53.1818 24.3255C49.1763 24.3255 48.6818 26.6291 48.6818 30.0309V37.1364H43.4072V20.1273L43.4054 20.1255Z" fill="white"/>
<path d="M57.2927 20.1255H62.3527V22.4291H62.4182C63.1291 21.0945 64.8509 19.6945 67.4127 19.6945C72.7527 19.6945 73.7436 23.2036 73.7436 27.7473V37.1345H68.4691V28.8018C68.4691 26.8418 68.4254 24.3236 65.7127 24.3236C63 24.3236 62.5472 26.4546 62.5472 28.6727V37.1564H57.2727V20.1255H57.2945H57.2927Z" fill="white"/>
<path d="M91.9364 34.2055C90.2564 36.3364 87.4582 37.5636 84.7237 37.5636C79.4491 37.5636 75.2291 34.0545 75.2291 28.6291C75.2291 23.2036 79.4491 19.6945 84.7237 19.6945C89.6546 19.6945 92.7328 23.2036 92.7328 28.6291V30.2655H80.4819C80.9128 32.2673 82.42 33.56 84.4655 33.56C86.1873 33.56 87.3509 32.6764 88.2328 31.4927L91.9364 34.2055ZM87.4582 26.6909C87.5019 24.9473 86.1237 23.4618 84.2291 23.4618C81.9037 23.4618 80.6328 25.0327 80.5037 26.6909H87.4582Z" fill="white"/>
<path d="M94.6055 24.7109V12.3527H99.88V37.1564H94.6055V24.7109Z" fill="white"/>
<path d="M102.982 24.7109V12.3527H108.256V37.1564H102.982V24.7109Z" fill="white"/>
<path d="M114.458 24.7109V12.3527H112.262V37.1564H124.62V35.1764H114.458V24.7127V24.7109Z" fill="white"/>
<path d="M138.896 26.4545C138.896 22.3855 136.42 20.6836 132.48 20.6618C130.413 20.6618 127.914 21.4582 126.365 22.88L127.507 24.2364C128.949 23.0309 130.565 22.4491 132.46 22.4491C135.087 22.4491 137.089 23.5909 137.089 26.4327V27.4655H134.569C132.976 27.4655 130.714 27.5945 128.885 28.3273C127.054 29.06 125.634 30.3945 125.613 32.8273C125.613 36.2073 128.52 37.5636 131.274 37.5636C134.029 37.5636 135.731 36.5945 136.916 34.5491L136.938 34.5273H137.111V34.5927C137.111 35.4764 137.176 36.3582 137.305 37.1545H139.156C138.92 35.3236 138.854 33.5382 138.854 30.4145V26.4527H138.898L138.896 26.4545ZM137.131 30.1582C137.131 31.5145 136.829 32.9145 135.969 33.9909C135.109 35.0673 133.665 35.7782 131.404 35.7782C129.638 35.7782 127.656 34.7455 127.636 32.7C127.658 29.8582 131.211 28.9964 134.742 28.9964H137.131V30.1582Z" fill="white"/>
<path d="M150.76 20.6636C148.349 20.6636 145.593 21.6764 144.3 23.8927L144.278 23.9145H144.105V12.3527H142.125V37.1564H144.105V34.3145H144.278L144.3 34.3582C145.593 36.5764 148.347 37.5873 150.76 37.5873C155.735 37.5873 159.244 34.0564 159.244 29.1473C159.244 24.2382 155.713 20.6636 150.76 20.6636ZM150.76 35.8C146.884 35.8 143.913 32.8073 143.913 29.1254C143.913 25.4436 146.905 22.4509 150.76 22.4509C154.615 22.4509 157.262 25.4654 157.262 29.1254C157.24 32.7854 154.764 35.7782 150.76 35.8Z" fill="white"/>
<path d="M198.644 29.1036C198.644 34.0127 202.175 37.5436 207.127 37.5436C212.08 37.5436 215.611 34.0127 215.611 29.1036C215.611 24.1945 212.08 20.6636 207.127 20.6636C202.153 20.6636 198.644 24.1945 198.644 29.1036ZM207.127 22.4291C211.133 22.4291 213.629 25.4436 213.629 29.1036C213.629 32.7636 211.131 35.7782 207.127 35.7782C203.124 35.7782 200.625 32.7636 200.625 29.1036C200.647 25.4436 203.124 22.4291 207.127 22.4291Z" fill="white"/>
<path d="M219.207 37.1345H221.187V23.5273H224.976V21.7618H221.187V17.8218C221.187 14.9145 222.113 13.4509 224.095 13.4509C224.869 13.4509 225.451 13.5582 225.946 13.7745L226.333 12.0727C225.729 11.8145 224.976 11.6855 223.986 11.6855C221.918 11.6855 219.206 12.9127 219.184 17.0473V21.7618H215.804V23.5273H219.184L219.206 37.1345H219.207Z" fill="white"/>
<path d="M231.222 24.7964C231.222 32.3327 236.475 37.7582 244.033 37.7582C251.591 37.7582 256.844 32.3327 256.844 24.7964C256.844 17.26 251.591 11.8345 244.033 11.8345C236.475 11.8345 231.222 17.26 231.222 24.7964ZM244.055 13.8164C247.327 13.8164 249.976 15.0218 251.805 16.9818C253.636 18.9618 254.647 21.6964 254.647 24.7982C254.647 27.9 253.635 30.6327 251.805 32.6145C249.975 34.5945 247.305 35.78 244.055 35.78C240.804 35.78 238.133 34.5745 236.282 32.6145C234.451 30.6345 233.44 27.9 233.44 24.7982C233.44 21.6964 234.453 18.9636 236.282 16.9818C238.113 15.0218 240.782 13.8164 244.055 13.8164Z" fill="white"/>
<path d="M261.731 23.8927L261.646 24.0218L261.602 23.8709C261.536 23.5473 261.495 22.2564 261.451 21.0927H259.471C259.471 21.9764 259.644 24.4091 259.644 25.5927V37.1545H261.624V28.3909C261.624 25.2254 263.304 22.6636 266.986 22.6636C267.18 22.6636 267.46 22.6854 267.738 22.7927L267.975 20.8545C267.587 20.7473 267.222 20.7036 266.813 20.7036C264.465 20.66 262.787 22.0164 261.731 23.8909V23.8927Z" fill="white"/>
<path d="M278.762 20.6636C276.156 20.6636 274.089 22.1273 273.249 23.8927L273.227 23.9364H273.033L273.011 23.8927C272.945 23.5691 272.904 22.2782 272.882 21.0945H270.902C270.902 21.9782 271.075 24.4109 271.075 25.5945V37.1564H273.055V29.1255C273.055 24.6473 275.575 22.4509 278.738 22.4509C282.118 22.4509 282.873 25.0564 282.873 27.7036V37.1782H284.853V27.6182C284.875 24.0436 283.798 20.6636 278.76 20.6636H278.762Z" fill="white"/>
<path d="M288.171 14.5491C288.171 15.3891 288.838 16.0564 289.7 16.0564C290.562 16.0564 291.229 15.3891 291.229 14.5491C291.229 13.7091 290.562 13.0418 289.7 13.0418C288.838 13.0418 288.171 13.7091 288.171 14.5491Z" fill="white"/>
<path d="M288.709 29.1673V37.1545H290.689V21.0927H288.709V29.1673Z" fill="white"/>
<path d="M301.52 35.8C300.078 35.8 299.216 34.9164 299.216 33.4527V22.86H303.867V21.0945H299.216V16.4436H297.236V21.0945H293.727V22.86H297.236V33.4527C297.236 35.7345 298.356 37.5436 301.371 37.5655C302.145 37.5655 303.287 37.3073 304.04 37.0273L303.867 35.2618C303.135 35.5636 302.316 35.8 301.52 35.8Z" fill="white"/>
<path d="M314.655 20.6636C312.027 20.6636 309.982 22.1273 309.142 23.8927L309.12 23.9364H308.947V12.3527H306.967V37.1564H308.947V29.1254C308.947 24.6473 311.467 22.4509 314.653 22.4509C318.033 22.4509 318.787 25.0564 318.787 27.7036V37.1782H320.767V27.5964C320.767 24.0436 319.691 20.6636 314.653 20.6636H314.655Z" fill="white"/>
<path d="M322.944 29.1036C322.944 34.0127 326.475 37.5436 331.427 37.5436C336.38 37.5436 339.911 34.0127 339.911 29.1036C339.911 24.1945 336.38 20.6636 331.427 20.6636C326.475 20.6636 322.965 24.1945 322.944 29.1036ZM331.449 22.4291C335.455 22.4291 337.951 25.4436 337.951 29.1036C337.951 32.7636 335.453 35.7782 331.449 35.7782C327.445 35.7782 324.947 32.7636 324.947 29.1036C324.947 25.4436 327.445 22.4291 331.449 22.4291Z" fill="white"/>
<path d="M342.495 24.7109V37.1345H344.475V12.3527H342.495V24.7109Z" fill="white"/>
<path d="M347.058 29.1254C347.058 34.0345 350.589 37.5654 355.542 37.5654C360.494 37.5654 364.025 34.0345 364.025 29.1254C364.025 24.2164 360.494 20.6854 355.542 20.6854C350.589 20.6636 347.058 24.1945 347.058 29.1254ZM355.542 22.4291C359.547 22.4291 362.044 25.4436 362.044 29.1036C362.044 32.7636 359.545 35.7782 355.542 35.7782C351.538 35.7782 349.04 32.7636 349.04 29.1036C349.062 25.4436 351.538 22.4509 355.542 22.4291Z" fill="white"/>
<path d="M380.195 23.7855C378.967 21.8691 376.856 20.6636 374.102 20.6636C369.344 20.6636 365.489 24.3891 365.467 28.9109C365.467 33.4327 369.344 37.1364 374.102 37.1582C376.858 37.1582 378.989 35.9527 380.195 34.0364L380.216 34.0145H380.389V36.2964C380.389 38.1055 380.282 43.7673 373.778 43.7891C371.258 43.7891 368.869 43.0145 366.996 41.14L365.813 42.2164C367.449 44.1764 370.549 45.5545 373.78 45.5545C377.011 45.5545 382.371 44.1764 382.371 36.1673V21.0964H380.391V23.8091H380.218L380.196 23.7873L380.195 23.7855ZM380.453 28.9091C380.453 32.4836 377.545 35.3691 373.951 35.3691C370.356 35.3691 367.449 32.4618 367.449 28.9091C367.449 25.3564 370.356 22.4291 373.951 22.4291C377.547 22.4291 380.453 25.3364 380.453 28.9091Z" fill="white"/>
<path d="M397.764 21.0727L392.489 34.8091L386.246 21.0727H384.027L391.435 37.2636L389.949 41.0309C389.455 42.3018 388.527 43.8091 386.935 43.8091C385.836 43.8091 385.213 43.6145 384.631 43.4L383.662 44.7782C384.458 45.2527 386.051 45.5309 386.956 45.5309C389.26 45.5309 390.682 44.2182 391.542 42.1727L399.875 21.0727H397.764Z" fill="white"/>
<path fill-rule="evenodd" clip-rule="evenodd" d="M206.235 3.85455C206.235 3.85455 196.087 9.26182 193.093 11.2873C189.796 13.5055 189.022 16.8018 189.022 19.3018V47.9964H188.225C184.564 48.0182 181.784 48.0182 176.593 44.98C171.035 41.7273 167.631 36.0836 167.631 29.6418V15.1655L152.702 4.82545L152.724 4.78182H136.976C134.305 4.78182 132 3.59636 132 2.06727H188.915C188.915 2.06727 192.362 0 197.424 0C201.516 0.0218182 204.489 1.91818 206.235 3.85636V3.85455ZM156.989 4.76L167.911 12.3218C168.924 7.88364 172.736 4.76 177.282 4.76H156.989ZM195.507 5.34182L189.044 8.91818V11.46L199.082 5.57818L195.505 5.34182H195.507ZM185.275 27.5745V22.1673C185.275 19.8836 184.349 18.3109 182.236 16.8036L173.275 10.4709C172.262 11.5691 171.658 13.0564 171.658 14.6927C171.658 16.76 172.627 18.5491 174.156 19.6909L185.273 27.5764L185.275 27.5745ZM207.527 5.12727C210.155 5.36364 216.92 7.15273 216.92 7.15273C216.92 7.15273 217.285 7.43273 217.005 7.43273H205.48L190.787 18.2473C190.96 17.2127 191.476 14.3691 194.364 12.5164C197.164 10.7291 207.053 5.38545 207.525 5.12727H207.527ZM201.044 5.81636C201.711 5.81636 202.251 5.27818 202.251 4.60909C202.251 3.94 201.713 3.40182 201.044 3.40182C200.375 3.40182 199.836 3.94 199.836 4.60909C199.836 5.27636 200.375 5.81636 201.044 5.81636Z" fill="white"/>
</g>
<defs>
<clipPath id="clip0_1537_50689">
<rect width="400" height="48" fill="white"/>
</clipPath>
</defs>
</svg>
