<svg width="217" height="48" viewBox="0 0 217 48" fill="none" xmlns="http://www.w3.org/2000/svg">
<g clip-path="url(#clip0_1537_50584)">
<path d="M17.6459 18.8396C16.5555 17.5318 14.9742 16.8036 12.9202 16.8036C8.75774 16.8036 5.70566 20.1654 5.70566 24.7988C5.70566 29.4322 8.77766 32.794 12.739 32.794C14.9561 32.794 16.7547 31.8122 17.8814 30.1223L22.4604 33.5203C20.3882 36.4637 16.8634 37.8457 13.4472 37.8457C5.66943 37.8457 0 32.7577 0 24.797C0 16.8362 5.66943 11.7482 13.4472 11.7482C16.2276 11.7482 19.7525 12.6937 21.8608 15.4017L17.6441 18.8359L17.6459 18.8396Z" fill="#2E261F"/>
<path d="M32.0024 19.747C37.2915 19.747 41.5064 23.2537 41.5064 28.6877C41.5064 34.1216 37.2897 37.6284 32.0024 37.6284C26.7152 37.6284 22.4984 34.1216 22.4984 28.6877C22.4984 23.2537 26.7152 19.747 32.0024 19.747ZM32.0024 33.0131C34.6379 33.0131 36.2192 31.2507 36.2192 28.6877C36.2192 26.1247 34.6379 24.3623 32.0024 24.3623C29.3669 24.3623 27.7857 26.1247 27.7857 28.6877C27.7857 31.2507 29.3669 33.0131 32.0024 33.0131Z" fill="#2E261F"/>
<path d="M43.4518 20.1654H48.7408V22.9096H48.8133C49.9399 20.8374 51.4125 19.747 53.7383 19.747C54.3378 19.747 55.0098 19.7832 55.5007 19.9281V24.7444C54.7562 24.5452 54.0281 24.3985 53.2474 24.3985C49.2317 24.3985 48.7408 26.7061 48.7408 30.1223V37.21H43.4518V20.1636V20.1654Z" fill="#2E261F"/>
<path d="M57.3355 20.1655H62.4054V22.4731H62.4779C63.1861 21.1472 64.9123 19.7289 67.4753 19.7289C72.8187 19.7289 73.8167 23.2357 73.8167 27.7984V37.2118H68.5277V28.8526C68.5277 26.8891 68.4915 24.3641 65.7835 24.3641C63.0756 24.3641 62.621 26.5087 62.621 28.7077V37.2118H57.3319V20.1655H57.3355Z" fill="#2E261F"/>
<path d="M91.9916 34.2684C90.3016 36.413 87.5212 37.6302 84.7771 37.6302C79.488 37.6302 75.2731 34.1235 75.2731 28.6895C75.2731 23.2556 79.4898 19.7488 84.7771 19.7488C89.7021 19.7488 92.7922 23.2556 92.7922 28.6895V30.3433H80.544C80.9624 32.343 82.4894 33.6326 84.5235 33.6326C86.2497 33.6326 87.4125 32.7596 88.2856 31.5605L91.9934 34.2684H91.9916ZM87.5212 26.7623C87.5574 24.9999 86.1772 23.5273 84.2862 23.5273C81.9605 23.5273 80.6871 25.1085 80.5603 26.7623H87.5212Z" fill="#2E261F"/>
<path d="M94.6632 24.7825V12.3895H99.9523V37.2136H94.6632V24.7825Z" fill="#2E261F"/>
<path d="M103.041 24.7825V12.3895H108.33V37.2136H103.041V24.7825Z" fill="#2E261F"/>
<path d="M114.526 24.7825V12.3895H112.327V37.2136H124.684V35.232H114.526V24.7825Z" fill="#2E261F"/>
<path d="M138.968 26.5087C138.968 22.4386 136.478 20.7106 132.552 20.7106C130.48 20.7106 127.973 21.5094 126.446 22.9277L127.591 24.2717C129.028 23.0545 130.663 22.473 132.552 22.473C135.17 22.473 137.186 23.6178 137.186 26.4706V27.5248H134.659C133.06 27.5248 130.806 27.6516 128.971 28.3798C127.137 29.1242 125.718 30.4519 125.7 32.9044C125.7 36.3025 128.607 37.6483 131.37 37.6483C134.132 37.6483 135.822 36.6847 137.021 34.6324L137.039 34.5962H137.202V34.6506C137.202 35.5417 137.275 36.4311 137.401 37.2136H139.254C139.019 35.3787 138.945 33.5783 138.945 30.4718V26.5105H138.963L138.968 26.5087ZM137.206 30.2346C137.206 31.5967 136.914 32.9968 136.043 34.0691C135.17 35.1414 133.735 35.8678 131.482 35.8678C129.701 35.8678 127.72 34.8317 127.72 32.7958C127.738 29.961 131.299 29.088 134.826 29.088H137.206V30.2327V30.2346Z" fill="#2E261F"/>
<path d="M150.834 20.7107C148.418 20.7107 145.656 21.7286 144.382 23.9457L144.364 23.9819H144.201V12.3876H142.201V37.2118H144.201V34.3771H144.364L144.382 34.4133C145.672 36.6304 148.434 37.6483 150.834 37.6483C155.795 37.6483 159.32 34.1054 159.32 29.1804C159.32 24.2554 155.795 20.7125 150.834 20.7125V20.7107ZM150.834 35.866C146.963 35.866 143.984 32.8501 143.984 29.1786C143.984 25.507 146.963 22.4912 150.834 22.4912C154.705 22.4912 157.34 25.507 157.34 29.1786C157.322 32.8501 154.832 35.866 150.834 35.866Z" fill="#2E261F"/>
<path d="M216.603 7.09677C216.603 7.09677 209.843 5.31805 207.246 5.08801C207.246 5.08801 196.963 10.6216 194.079 12.4818C191.198 14.3384 190.647 17.1333 190.52 18.1748L205.199 7.38658H216.705C216.996 7.38658 216.605 7.09496 216.605 7.09496L216.603 7.09677Z" fill="#2E261F"/>
<path d="M197.139 0.00181132C192.101 0.00181132 188.627 2.04317 188.627 2.04317H131.754C131.754 3.56468 134.056 4.72755 136.746 4.72755H176.991C176.991 4.72755 167.37 4.72755 167.37 14.6554V29.5137C167.37 35.9565 170.766 41.5807 176.325 44.8229C181.882 48.0616 184.67 47.8152 188.76 47.8152V19.4717C188.76 16.9757 189.511 13.6718 192.835 11.4584C195.844 9.45328 206.246 3.78023 206.246 3.78023L206.262 3.79653C204.478 1.89102 201.238 0 197.139 0V0.00181132ZM188.799 10.6506V8.84287L195.246 5.28543L198.079 5.51547L188.796 10.6506H188.799ZM200.778 5.57525C200.209 5.57525 199.745 5.11155 199.745 4.54279C199.745 3.97404 200.209 3.51396 200.778 3.51396C201.346 3.51396 201.814 3.97766 201.814 4.54279C201.814 5.10792 201.348 5.57525 200.778 5.57525Z" fill="#2E261F"/>
<path d="M204.951 4.49391C203.078 2.90357 200.129 1.44908 196.624 1.44908V0.0108876L197.139 0.00183105C201.23 0.00183105 204.458 1.87836 206.242 3.78025L204.951 4.48847V4.4921V4.49391Z" fill="#DF1E12"/>
<path d="M205.197 7.38839L194.927 14.938C194.927 14.938 194.804 13.8349 196.347 12.5887C197.894 11.3425 207.244 5.08801 207.244 5.08801L205.196 7.38839H205.197Z" fill="#DF1E12"/>
<path d="M184.441 26.6862V21.6362C184.441 19.5133 183.574 18.0407 181.592 16.6478L173.197 10.7321C172.255 11.7573 171.684 13.1339 171.684 14.6626C171.684 16.5681 172.601 18.2581 174.012 19.3304L184.44 26.688L184.443 26.6844L184.441 26.6862Z" fill="white"/>
<path d="M184.441 26.6862V21.6362C184.441 19.5133 183.574 18.0407 181.592 16.6478L173.197 10.7321C172.255 11.7573 171.684 13.1339 171.684 14.6626C171.684 16.5681 172.601 18.2581 174.012 19.3304L184.44 26.688L184.443 26.6844L184.441 26.6862Z" fill="white"/>
<path d="M194.085 12.4836C196.967 10.6234 207.249 5.08982 207.249 5.08982C207.074 4.74204 206.65 4.2077 206.262 3.79835L206.246 3.78204C206.246 3.78204 195.847 9.4551 192.835 11.4602C189.779 13.498 188.899 16.4486 188.776 18.854L188.76 19.4735L190.524 18.1784C190.651 17.1369 191.201 14.342 194.085 12.4854V12.4836Z" fill="white"/>
<path d="M200.78 3.51398C201.35 3.51398 201.816 3.97768 201.816 4.54281C201.816 5.10794 201.35 5.57526 200.78 5.57526C200.209 5.57526 199.747 5.11156 199.747 4.54281C199.747 3.97405 200.211 3.51398 200.78 3.51398Z" fill="white"/>
<path d="M188.801 8.8429L195.248 5.28546L198.084 5.5155L188.801 10.6506V8.8429Z" fill="white"/>
<path d="M153.283 4.72754H176.991C176.991 4.72754 167.312 4.82535 167.37 14.6554L153.283 4.72754Z" fill="#FFDD00"/>
</g>
<defs>
<clipPath id="clip0_1537_50584">
<rect width="216.815" height="48" fill="white"/>
</clipPath>
</defs>
</svg>
