<svg width="207" height="48" viewBox="0 0 207 48" fill="none" xmlns="http://www.w3.org/2000/svg">
<path d="M23.9423 1C11.2721 1 1 11.2849 1 23.9423C1 36.5997 11.2721 47 23.9423 47C36.5868 47 46.8846 36.5868 46.8846 23.9423C46.8846 11.2721 36.6125 1 23.9423 1ZM23.9423 44.3967C12.6571 44.3967 3.5007 35.2403 3.5007 23.9551C3.5007 12.6699 12.6699 3.51352 23.9423 3.51352C35.2147 3.51352 44.3711 12.6443 44.3839 23.9551C44.3839 35.2403 35.2275 44.3967 23.9423 44.3967Z" fill="white"/>
<path d="M10.041 27.8152C10.041 38.2283 23.0575 43.8709 23.5704 44.1146L23.9423 44.2428L24.3399 43.9992C24.9683 43.7683 37.8693 37.9847 37.8693 28.0845V9.28438H10.041V27.8152ZM12.0416 27.828V22.1982H23.3011V23.6474C23.019 23.5832 22.4034 23.4422 21.7109 23.5448C21.339 23.5448 20.9543 23.673 20.5824 23.673C19.9412 23.673 19.4539 23.8012 18.9409 23.8012C17.9407 23.8012 17.3251 23.8012 16.8121 23.8012H16.0555V36.4714H16.8121C16.8121 36.4714 17.5688 36.4714 18.5562 36.4714C19.5437 36.4714 20.1849 36.3432 20.8132 36.3432C21.416 36.215 21.9289 36.215 22.6856 36.215C22.8138 36.215 22.9292 36.3304 23.0575 36.4586C23.1088 36.5227 23.1857 36.6253 23.3011 36.7279V41.8704C20.2105 40.2674 12.0416 35.3429 12.0416 27.828ZM23.3011 34.9197C23.1216 34.8684 22.9036 34.83 22.6856 34.83C21.8135 34.83 21.3134 34.83 20.7107 34.9582C20.0951 34.9582 19.4667 35.0864 18.5819 35.0864C18.3254 35.0864 17.9407 35.0864 17.697 35.0864V25.3273C18.0817 25.3273 18.4536 25.3273 19.082 25.3273C19.5565 25.3273 20.1977 25.3273 20.8261 25.1991C21.198 25.1991 21.5827 25.0708 21.9546 25.0708C22.5958 24.9426 23.2242 25.0708 23.2242 25.0708C23.2498 25.0837 23.2755 25.0965 23.3011 25.1093V34.9197ZM24.8015 25.1349C24.84 25.1093 24.9041 25.0708 24.9683 25.0708C24.9683 25.0708 25.6095 24.9426 26.2378 25.0708C26.6097 25.0708 26.9945 25.1991 27.3664 25.1991C27.9819 25.1991 28.6103 25.3273 29.1104 25.3273C29.6106 25.3273 30.1235 25.3273 30.4954 25.3273V35.0864C30.239 35.0864 29.9825 35.0864 29.6106 35.0864C28.7514 35.0864 28.1102 34.9582 27.4818 34.9582C26.8406 34.83 26.2122 34.83 25.4556 34.83C25.2119 34.83 24.9939 34.8684 24.8015 34.9326V25.1349ZM24.8015 25.1221V25.058L24.8528 25.0708C24.8272 25.0965 24.8144 25.1093 24.8015 25.1221ZM24.8015 41.8704V36.6766C24.9041 36.6125 25.0067 36.5356 25.1221 36.4586C25.2504 36.215 25.2504 36.215 25.494 36.215C26.2378 36.215 26.738 36.3432 27.3664 36.3432C27.9819 36.3432 28.6231 36.4714 29.6234 36.4714C30.6108 36.4714 31.3675 36.4714 31.3675 36.4714H32.1113V23.8012H31.3546C30.8545 23.8012 30.2133 23.8012 29.2258 23.8012C28.7129 23.8012 28.2127 23.8012 27.5844 23.673C27.2125 23.673 26.8277 23.5448 26.4558 23.5448C25.7633 23.5448 25.0452 23.6345 24.8015 23.6602V22.1982H36.0996V28.1999C36.0996 35.266 27.8152 40.2674 24.8015 41.8704ZM36.0996 20.5568H12.0416V11.2721H36.0996V20.5568Z" fill="white"/>
<path d="M15.4399 18.5434C16.3119 19.1718 17.8252 20.0566 17.8252 20.0566L18.0688 20.1849L18.4407 20.0566C18.5561 20.0566 19.9411 19.1718 20.9414 18.5434C21.698 18.0304 22.0699 17.5303 22.0699 16.9019C22.0699 16.7865 22.0699 15.2861 22.0699 12.2724V11.644H14.1703V12.2724C14.1703 15.2604 14.1703 16.7736 14.1703 16.9019C14.3114 17.4149 14.6833 18.0304 15.4399 18.5434ZM20.0694 17.5303C19.4538 17.915 18.4535 18.5562 17.9406 18.7999C17.4276 18.5305 16.5427 17.9022 15.9144 17.5303C15.5296 17.2866 15.286 16.9019 15.286 16.7736C15.286 16.6454 15.286 16.0042 15.286 15.1706H20.6977C20.6977 16.0683 20.6977 16.7608 20.6977 16.9019C20.6977 17.1584 20.313 17.402 20.0694 17.5303ZM15.2988 12.7725V12.9008H20.6977C20.6977 13.2727 20.6977 13.6574 20.6977 14.0421H15.286C15.286 13.6189 15.286 13.1829 15.2988 12.7725Z" fill="white"/>
<path d="M27.6998 18.5434C28.5718 19.1718 30.085 20.0566 30.085 20.0566L30.3287 20.1849L30.7006 20.0566C30.816 20.0566 32.201 19.1718 33.2013 18.5434C33.9579 18.0304 34.3298 17.5303 34.3298 16.9019C34.3298 16.7865 34.3298 15.2861 34.3298 12.2724V11.644H26.4302V12.2724C26.4302 15.2604 26.4302 16.7736 26.4302 16.9019C26.5712 17.4149 26.9431 18.0304 27.6998 18.5434ZM32.3677 17.5303C31.7393 17.915 30.7519 18.5562 30.2389 18.7999C29.7131 18.5305 28.8411 17.9022 28.2127 17.5303C27.828 17.2866 27.5843 16.9019 27.5843 16.7736C27.5843 16.7352 27.5843 16.6582 27.5843 16.5428L30.2133 14.6705L32.9961 16.4787C32.9961 16.6967 32.9961 16.8506 32.9961 16.9019C32.9961 17.1584 32.6114 17.402 32.3677 17.5303ZM27.61 12.7725V12.9008H32.9961C32.9961 13.6574 32.9961 14.4781 32.9961 15.1706L30.2133 13.2855L27.5843 15.1322C27.5843 14.4012 27.5843 13.542 27.5843 12.7725H27.61Z" fill="white"/>
<path d="M21.8008 26.6866H18.5435V27.8152H21.8008V26.6866Z" fill="white"/>
<path d="M21.8008 29.3156H18.5435V30.4441H21.8008V29.3156Z" fill="white"/>
<path d="M21.8008 31.9702H18.5435V33.0987H21.8008V31.9702Z" fill="white"/>
<path d="M29.072 26.6866H25.8147V27.8152H29.072V26.6866Z" fill="white"/>
<path d="M29.072 29.3156H25.8147V30.4441H29.072V29.3156Z" fill="white"/>
<path d="M29.072 31.9702H25.8147V33.0987H29.072V31.9702Z" fill="white"/>
<path d="M58.8879 19.2615C59.3624 18.787 59.9267 18.4407 60.5551 18.2227C61.1835 18.0047 61.9529 17.8893 62.8506 17.8765C64.056 17.8765 64.9794 18.0304 65.6078 18.3382C66.2361 18.6459 66.5824 19.1076 66.6465 19.736L66.6593 20.8645H67.2621C67.3005 20.1463 67.3647 19.5308 67.4673 18.9794C67.5314 18.6459 67.6468 18.2997 67.7879 17.9534C67.634 17.9278 67.198 17.8124 66.4798 17.62C65.7745 17.4276 65.1717 17.2994 64.6716 17.2353C64.1843 17.1712 63.6457 17.1327 63.0686 17.1327C60.6192 17.1327 58.6828 17.7995 57.2721 19.1332C55.8615 20.467 55.1433 22.1469 55.1433 24.1731C55.1433 24.9682 55.2459 25.712 55.4639 26.3789C55.6691 27.0457 55.9769 27.6741 56.3744 28.2383C56.772 28.8026 57.2978 29.3284 57.9261 29.7901C58.5545 30.2517 59.2983 30.6108 60.1447 30.8545C60.9911 31.0981 61.9016 31.2264 62.8891 31.2264C63.7226 31.2264 64.5049 31.1366 65.2102 30.9699C65.9284 30.8032 66.6465 30.5339 67.3903 30.1491L67.7622 29.2643L67.5955 29.0591C67.0954 29.4182 66.5824 29.6746 66.0823 29.8414C65.3385 30.085 64.5305 30.2004 63.6585 30.2004C61.7221 30.2004 60.1704 29.6105 58.9905 28.4435C57.8107 27.2637 57.2208 25.7248 57.2208 23.7884C57.2208 22.6855 57.3875 21.775 57.6825 21.044C58.0159 20.3387 58.4006 19.736 58.8879 19.2615Z" fill="white"/>
<path d="M73.4561 21.7366C72.0327 21.7366 70.8785 22.1854 69.968 23.0831C69.0575 23.9808 68.6086 25.1478 68.6086 26.5713C68.6086 27.3535 68.7497 28.0973 69.0447 28.7898C69.2114 29.1874 69.455 29.5721 69.7756 29.944C70.0962 30.3159 70.5066 30.6365 71.0196 30.8801C71.5325 31.1238 72.1609 31.252 72.8919 31.252C73.8409 31.252 74.7129 31.034 75.4952 30.598C76.2774 30.162 76.893 29.5593 77.329 28.7898C77.765 28.0204 77.983 27.174 77.983 26.2378C77.983 24.9041 77.5599 23.8269 76.7263 22.9805C75.8799 22.1598 74.7899 21.7366 73.4561 21.7366ZM75.3926 29.7003C74.8924 30.2902 74.2769 30.5724 73.5459 30.5724C72.9688 30.5724 72.4302 30.38 71.9429 30.0081C71.4556 29.6362 71.0709 29.0463 70.8144 28.2384C70.5579 27.4305 70.4297 26.6354 70.4297 25.8531C70.4297 24.6605 70.6733 23.7756 71.1606 23.2113C71.6479 22.6471 72.2763 22.365 73.0586 22.365C73.61 22.365 74.123 22.5188 74.5718 22.8138C75.0335 23.1216 75.4054 23.6345 75.7004 24.3655C75.9953 25.0965 76.1492 25.9685 76.1492 26.9816C76.1364 28.2127 75.8927 29.1232 75.3926 29.7003Z" fill="white"/>
<path d="M84.1899 21.775C83.9206 21.775 83.6641 21.8263 83.4205 21.9289C83.1768 22.0315 82.9588 22.1597 82.7664 22.3265C82.6638 22.4162 82.4843 22.6342 82.2407 22.9548C81.997 23.2754 81.7405 23.6089 81.4456 23.9423C81.4456 23.1344 81.4712 22.5316 81.4969 22.1341C81.4969 22.0828 81.5097 22.0315 81.5097 21.9802C81.5097 21.9161 81.4969 21.8648 81.4712 21.8391C81.4456 21.8135 81.4071 21.7878 81.3686 21.7878C81.3301 21.7878 81.2404 21.8135 81.1121 21.8776C80.5222 22.1597 79.5861 22.3906 78.3037 22.5701V23.1087C79.0346 23.1087 79.445 23.1216 79.5476 23.1472C79.6502 23.1857 79.7271 23.237 79.7656 23.3011C79.8041 23.3652 79.8297 23.596 79.8425 23.9679C79.8554 24.5579 79.8682 25.0965 79.8682 25.6094V26.7508C79.8682 26.8277 79.8554 27.7126 79.8169 29.4182C79.8041 29.726 79.7656 29.9568 79.7015 30.1107C79.6758 30.1876 79.6245 30.2517 79.5732 30.2902C79.522 30.3287 79.4322 30.3672 79.3296 30.38C79.2783 30.3928 78.8807 30.4056 78.1626 30.4185V30.9571C78.932 30.9186 79.7143 30.893 80.5222 30.893C81.3045 30.893 82.2663 30.9186 83.382 30.9571V30.4185C82.5484 30.3672 82.0226 30.303 81.8431 30.2517C81.7533 30.2261 81.6764 30.1748 81.6379 30.1363C81.5994 30.085 81.561 30.0081 81.5353 29.9055C81.5097 29.8029 81.4969 29.5464 81.484 29.1489C81.4584 28.0332 81.4327 27.2637 81.4327 26.8534V25.8659C81.4327 25.058 81.5995 24.4553 81.9457 24.0449C82.292 23.6473 82.7023 23.4422 83.1896 23.4422C83.4846 23.4422 83.7282 23.5063 83.9206 23.6473C84.113 23.7884 84.2797 24.0064 84.4336 24.3142H84.8568C84.8696 23.673 84.9209 22.9292 85.0235 22.0828L84.9722 21.9546C84.7157 21.8391 84.4464 21.775 84.1899 21.775Z" fill="white"/>
<path d="M95.3725 30.2645C95.3084 30.1876 95.2571 30.0594 95.2186 29.867C95.1801 29.572 95.1545 29.0078 95.1545 28.1742V26.4814C95.1545 25.1734 95.1288 24.3655 95.0903 24.0833C95.0134 23.596 94.8595 23.1985 94.6287 22.8779C94.3978 22.5573 94.0516 22.3008 93.5899 22.0828C93.1283 21.8776 92.6409 21.7622 92.128 21.7622C91.6663 21.7622 91.1662 21.8519 90.6532 22.0443L88.8707 23.5575C88.8835 22.8138 88.9091 22.3393 88.922 22.1084C88.922 22.0571 88.9348 22.0058 88.9348 21.9545C88.9348 21.8904 88.922 21.8391 88.8963 21.8135C88.8707 21.7878 88.8322 21.7622 88.7937 21.7622C88.7552 21.7622 88.6655 21.7878 88.5372 21.8519C87.9473 22.1341 87.0112 22.3649 85.7288 22.5444V23.0831C86.4597 23.0831 86.8701 23.0959 86.9727 23.1215C87.0753 23.16 87.1522 23.2113 87.1907 23.2754C87.2292 23.3395 87.2676 23.5704 87.2805 23.9423C87.2933 24.5322 87.3061 25.0708 87.3061 25.5838V26.7251C87.2676 28.4692 87.2548 29.3797 87.2548 29.4695C87.242 29.7901 87.1907 30.0209 87.1266 30.1491C87.0881 30.2133 87.0368 30.2645 86.9599 30.303C86.8829 30.3415 86.7803 30.3671 86.6521 30.38L85.7416 30.3928V30.9314C86.947 30.8929 87.8191 30.8673 88.3449 30.8673C88.9732 30.8673 89.6786 30.8929 90.448 30.9314V30.3928C89.7812 30.38 89.4349 30.3671 89.3964 30.3671C89.2939 30.3415 89.2041 30.303 89.1528 30.2645C89.1015 30.2261 89.063 30.1748 89.0374 30.1107C88.9733 29.9696 88.9348 29.7259 88.922 29.4182C88.922 29.2899 88.9091 28.3922 88.8707 26.7379V25.5838C88.8707 24.8784 88.9604 24.3911 89.1271 24.0833C89.2939 23.7884 89.576 23.5319 89.9735 23.3011C90.3711 23.0702 90.8071 22.9676 91.2816 22.9676C91.8202 22.9676 92.2819 23.0959 92.6666 23.3524C93.0513 23.6088 93.295 23.9551 93.3976 24.3783C93.4745 24.6861 93.513 25.3401 93.513 26.3404V27.9434C93.513 28.3538 93.4745 29.354 93.3847 30.9186C94.2055 30.8801 94.8082 30.8545 95.1545 30.8545C95.5648 30.8545 96.0906 30.8801 96.7062 30.9186V30.38L95.6802 30.3543C95.552 30.38 95.4494 30.3287 95.3725 30.2645Z" fill="white"/>
<path d="M103.272 22.211C102.695 21.8904 102.054 21.7237 101.336 21.7237C100.746 21.7237 100.207 21.8263 99.7069 22.0443C99.3222 22.1982 98.9374 22.4034 98.5527 22.6727C98.168 22.942 97.873 23.1728 97.6935 23.378C97.437 23.6602 97.2062 24.0962 97.0138 24.6861C96.8086 25.276 96.7189 25.93 96.7189 26.661C96.7189 27.5972 96.9112 28.4051 97.2831 29.1104C97.655 29.8029 98.1808 30.3287 98.8605 30.6749C99.5402 31.0212 100.297 31.2007 101.143 31.2007C101.566 31.2007 101.977 31.1494 102.361 31.0597C102.746 30.9699 103.092 30.8545 103.387 30.7262C103.593 30.6365 103.913 30.4569 104.349 30.1876L104.657 29.4951L104.503 29.3284C103.939 29.6618 103.464 29.8927 103.08 30.0081C102.695 30.1363 102.31 30.1876 101.925 30.1876C101.348 30.1876 100.797 30.0594 100.271 29.7901C99.7454 29.5208 99.3222 29.1104 99.0272 28.5461C98.7194 27.9819 98.5655 27.2509 98.5527 26.3404H101.618C102.31 26.3404 102.99 26.3147 103.682 26.2634C104.041 26.2378 104.452 26.1865 104.913 26.0967C104.939 25.8403 104.952 25.6222 104.952 25.4427C104.952 24.7374 104.824 24.109 104.554 23.5447C104.272 22.9805 103.849 22.5445 103.272 22.211ZM103.182 25.6351C102.913 25.6607 102.361 25.6864 101.515 25.6864C101.156 25.6864 100.502 25.6735 99.553 25.6351C99.0529 25.6222 98.7194 25.5966 98.5399 25.5838C98.5399 24.4681 98.7707 23.6602 99.2067 23.1472C99.6428 22.6342 100.22 22.3778 100.951 22.3778C101.63 22.3778 102.182 22.6086 102.579 23.0831C102.99 23.5576 103.195 24.2885 103.195 25.2888C103.195 25.3658 103.182 25.4812 103.182 25.6351Z" fill="white"/>
<path d="M108.722 30.2774C108.671 30.2389 108.633 30.1876 108.607 30.1235C108.543 29.9824 108.504 29.7516 108.491 29.431C108.491 29.3027 108.466 28.4051 108.44 26.7508V21.8007L108.453 20.3131C108.453 19.518 108.479 18.5433 108.504 17.402L108.517 17.0814C108.53 17.0044 108.53 16.9403 108.53 16.889C108.53 16.8377 108.517 16.7993 108.491 16.7736C108.466 16.748 108.427 16.7351 108.389 16.7351C108.35 16.7351 108.286 16.748 108.197 16.7864C107.632 17.0557 106.645 17.2738 105.196 17.4533V18.0175C105.978 18.0175 106.414 18.0432 106.517 18.0817C106.581 18.1073 106.632 18.1458 106.67 18.2099C106.709 18.2997 106.747 18.7229 106.773 19.4923C106.812 20.6208 106.824 21.7237 106.824 22.7753V26.7251C106.786 28.4692 106.76 29.3797 106.76 29.4566C106.747 29.7772 106.709 30.0081 106.632 30.1363C106.594 30.2004 106.542 30.2517 106.465 30.2902C106.388 30.3287 106.286 30.3543 106.145 30.3671L105.247 30.38V30.9314C106.26 30.8801 107.081 30.8545 107.709 30.8545C108.363 30.8545 109.12 30.8801 109.992 30.9314V30.38C109.325 30.3671 108.979 30.3543 108.927 30.3543C108.851 30.3543 108.774 30.3158 108.722 30.2774Z" fill="white"/>
<path d="M114.403 30.2774C114.352 30.2389 114.314 30.1876 114.288 30.1235C114.224 29.9824 114.185 29.7516 114.173 29.431C114.173 29.3027 114.147 28.4051 114.121 26.7508V21.8007L114.134 20.3131C114.134 19.518 114.16 18.5433 114.185 17.402L114.198 17.0814C114.211 17.0044 114.211 16.9403 114.211 16.889C114.211 16.8377 114.198 16.7993 114.173 16.7736C114.147 16.748 114.109 16.7351 114.07 16.7351C114.032 16.7351 113.967 16.748 113.878 16.7864C113.313 17.0557 112.326 17.2738 110.877 17.4533V18.0175C111.659 18.0175 112.095 18.0432 112.198 18.0817C112.262 18.1073 112.313 18.1458 112.352 18.2099C112.39 18.2997 112.429 18.7229 112.454 19.4923C112.493 20.6208 112.505 21.7237 112.505 22.7753V26.7251C112.467 28.4692 112.441 29.3797 112.441 29.4566C112.429 29.7772 112.39 30.0081 112.313 30.1363C112.275 30.2004 112.223 30.2517 112.146 30.2902C112.069 30.3287 111.967 30.3543 111.826 30.3671L110.928 30.38V30.9314C111.941 30.8801 112.762 30.8545 113.39 30.8545C114.044 30.8545 114.801 30.8801 115.673 30.9314V30.38C115.006 30.3671 114.66 30.3543 114.609 30.3543C114.532 30.3543 114.455 30.3158 114.403 30.2774Z" fill="white"/>
<path d="M134.742 17.402C133.601 17.4533 132.806 17.479 132.37 17.479C131.883 17.479 131.126 17.4533 130.074 17.402V18.0176C130.831 18.0304 131.28 18.0689 131.447 18.1202C131.613 18.1715 131.729 18.2612 131.806 18.3638C131.883 18.4792 131.921 18.8383 131.934 19.441C131.96 20.2618 131.972 21.1082 131.972 21.9802V24.9169C131.972 25.7505 131.947 26.443 131.883 26.9816C131.818 27.5202 131.729 27.9562 131.588 28.264C131.447 28.5718 131.241 28.8539 130.972 29.1104C130.69 29.3669 130.28 29.5721 129.728 29.7516C129.177 29.9311 128.548 30.0081 127.83 30.0081C127.215 30.0081 126.663 29.944 126.176 29.8157C125.676 29.6875 125.291 29.5079 124.996 29.2899C124.611 29.0078 124.342 28.6487 124.162 28.2127C123.983 27.7767 123.906 26.879 123.906 25.5068V21.9802C123.919 20.3003 123.932 19.4026 123.944 19.2743C123.957 18.787 124.009 18.4792 124.098 18.351C124.15 18.2612 124.265 18.1843 124.432 18.133C124.598 18.0817 125.06 18.0432 125.804 18.0304V17.4148C124.919 17.4661 124.021 17.4918 123.111 17.4918C122.226 17.4918 121.251 17.4661 120.225 17.4148V18.0304C120.982 18.0432 121.444 18.0817 121.598 18.133C121.764 18.1843 121.88 18.274 121.957 18.3766C122.034 18.4921 122.072 18.8511 122.098 19.4539C122.111 20.2746 122.123 21.121 122.123 21.993V26.2122C122.123 27.4433 122.213 28.3153 122.393 28.8411C122.534 29.2386 122.79 29.6234 123.162 29.9953C123.534 30.38 124.086 30.6749 124.804 30.9058C125.522 31.1366 126.368 31.252 127.356 31.252C128.189 31.252 128.959 31.1494 129.651 30.9571C130.344 30.7647 130.908 30.4826 131.344 30.1235C131.934 29.649 132.331 29.0976 132.549 28.4692C132.767 27.8408 132.883 26.7508 132.883 25.1734V21.9802C132.896 20.3003 132.908 19.4026 132.921 19.2743C132.934 18.787 132.985 18.4792 133.062 18.351C133.126 18.2612 133.242 18.1843 133.396 18.133C133.563 18.0817 134.011 18.0432 134.768 18.0304V17.402H134.742Z" fill="white"/>
<path d="M143.565 30.2645C143.501 30.1876 143.45 30.0594 143.411 29.867C143.373 29.572 143.347 29.0078 143.347 28.1742V26.4814C143.347 25.1734 143.322 24.3655 143.283 24.0833C143.206 23.596 143.052 23.1985 142.822 22.8779C142.591 22.5573 142.244 22.3008 141.783 22.0828C141.321 21.8776 140.834 21.7622 140.321 21.7622C139.859 21.7622 139.359 21.8519 138.846 22.0443L137.064 23.5575C137.076 22.8138 137.102 22.3393 137.115 22.1084C137.115 22.0571 137.128 22.0058 137.128 21.9545C137.128 21.8904 137.115 21.8391 137.089 21.8135C137.064 21.7878 137.025 21.7622 136.987 21.7622C136.948 21.7622 136.858 21.7878 136.73 21.8519C136.14 22.1341 135.204 22.3649 133.922 22.5444V23.0831C134.653 23.0831 135.063 23.0959 135.166 23.1215C135.268 23.16 135.345 23.2113 135.384 23.2754C135.422 23.3395 135.461 23.5704 135.473 23.9423C135.486 24.5322 135.499 25.0708 135.499 25.5838V26.7251C135.461 28.4692 135.448 29.3797 135.448 29.4695C135.435 29.7901 135.384 30.0209 135.319 30.1491C135.281 30.2133 135.23 30.2645 135.153 30.303C135.076 30.3415 134.973 30.3671 134.845 30.38L133.934 30.3928V30.9314C135.14 30.8929 136.012 30.8673 136.538 30.8673C137.166 30.8673 137.871 30.8929 138.641 30.9314V30.3928C137.974 30.38 137.628 30.3671 137.589 30.3671C137.487 30.3415 137.397 30.303 137.346 30.2645C137.294 30.2261 137.256 30.1748 137.23 30.1107C137.166 29.9696 137.128 29.7259 137.115 29.4182C137.115 29.2899 137.102 28.3922 137.064 26.7379V25.5838C137.064 24.8784 137.153 24.3911 137.32 24.0833C137.487 23.7756 137.769 23.5319 138.166 23.3011C138.564 23.0702 139 22.9676 139.474 22.9676C140.013 22.9676 140.475 23.0959 140.859 23.3524C141.244 23.6088 141.488 23.9551 141.59 24.3783C141.667 24.6861 141.706 25.3401 141.706 26.3404V27.9434C141.706 28.3538 141.667 29.354 141.578 30.9186C142.398 30.8801 143.001 30.8545 143.347 30.8545C143.758 30.8545 144.283 30.8801 144.899 30.9186V30.38L143.873 30.3543C143.745 30.38 143.642 30.3287 143.565 30.2645Z" fill="white"/>
<path d="M147.515 19.6719C147.81 19.6719 148.054 19.5693 148.272 19.3513C148.49 19.1333 148.592 18.8896 148.592 18.5947C148.592 18.2997 148.49 18.0432 148.285 17.8252C148.079 17.62 147.823 17.5046 147.528 17.5046C147.233 17.5046 146.977 17.6072 146.759 17.8252C146.553 18.0304 146.438 18.2869 146.438 18.5947C146.438 18.8896 146.541 19.1333 146.759 19.3513C146.951 19.5693 147.207 19.6719 147.515 19.6719Z" fill="white"/>
<path d="M148.708 30.303C148.656 30.2646 148.618 30.2133 148.58 30.1491C148.515 30.0081 148.477 29.7772 148.477 29.4566C148.464 29.3284 148.451 28.4307 148.426 26.7764V25.0452C148.426 24.327 148.451 23.2883 148.503 21.9417L148.297 21.7878C147.464 22.1854 146.425 22.4547 145.194 22.5829V23.1215C145.951 23.1215 146.374 23.1472 146.464 23.1985C146.566 23.2498 146.63 23.3139 146.669 23.4165C146.733 23.596 146.759 24.1603 146.759 25.1093V26.7764C146.72 28.5205 146.707 29.431 146.707 29.5079C146.694 29.8285 146.643 30.0594 146.579 30.1876C146.54 30.2517 146.489 30.303 146.412 30.3415C146.335 30.38 146.233 30.4056 146.104 30.4185L145.194 30.4313V30.9699C146.348 30.9314 147.182 30.9058 147.695 30.9058C148.272 30.9058 149.041 30.9314 150.016 30.9699V30.4313C149.349 30.4185 148.99 30.4056 148.951 30.4056C148.836 30.38 148.759 30.3415 148.708 30.303Z" fill="white"/>
<path d="M156.364 21.993V22.5701C157.031 22.5829 157.428 22.6342 157.582 22.724C157.659 22.7625 157.71 22.8394 157.71 22.9548C157.71 23.0318 157.698 23.1344 157.672 23.2369C157.569 23.6345 157.364 24.2116 157.056 24.9682C156.531 26.2763 156.248 26.9816 156.184 27.1098L155.235 29.2771C155.12 29.0206 154.902 28.5205 154.594 27.7638L154.312 27.1098L153.145 24.2116C152.889 23.5832 152.76 23.1728 152.76 22.9805C152.76 22.865 152.824 22.7625 152.94 22.6983C153.055 22.6342 153.466 22.5829 154.145 22.5701V21.993C153.222 22.0315 152.491 22.0571 151.952 22.0571C151.465 22.0571 150.696 22.0315 149.644 21.993V22.5701C150.029 22.5829 150.26 22.5957 150.349 22.6214C150.452 22.647 150.555 22.7112 150.644 22.8009C150.734 22.8907 150.837 23.0831 150.965 23.378L152.914 27.9306L153.696 29.7516C153.786 29.9696 153.966 30.4056 154.209 31.0596H155.197C156.133 28.8154 156.684 27.533 156.851 27.1739L157.762 25.2247C158.364 24.0064 158.698 23.3139 158.788 23.16C158.916 22.9292 159.044 22.7753 159.172 22.7112C159.301 22.6342 159.57 22.5957 159.955 22.5701V21.993C158.967 22.0315 158.352 22.0571 158.134 22.0571C157.916 22.0571 157.313 22.0443 156.364 21.993Z" fill="white"/>
<path d="M166.7 22.211C166.123 21.8904 165.482 21.7237 164.764 21.7237C164.174 21.7237 163.635 21.8263 163.135 22.0443C162.75 22.1982 162.365 22.4034 161.981 22.6727C161.596 22.942 161.301 23.1728 161.121 23.378C160.865 23.6602 160.634 24.0962 160.442 24.6861C160.237 25.276 160.147 25.93 160.147 26.661C160.147 27.5972 160.339 28.4051 160.711 29.1104C161.083 29.8029 161.622 30.3287 162.288 30.6749C162.968 31.0212 163.725 31.2007 164.571 31.2007C164.994 31.2007 165.405 31.1494 165.789 31.0597C166.174 30.9699 166.52 30.8545 166.815 30.7262C167.021 30.6365 167.341 30.4569 167.777 30.1876L168.085 29.4951L167.931 29.3284C167.367 29.6618 166.892 29.8927 166.508 30.0081C166.123 30.1363 165.738 30.1876 165.353 30.1876C164.776 30.1876 164.225 30.0594 163.699 29.7901C163.173 29.5208 162.75 29.1104 162.455 28.5461C162.147 27.9819 161.994 27.2509 161.981 26.3404H165.046C165.738 26.3404 166.418 26.3147 167.11 26.2634C167.469 26.2378 167.88 26.1865 168.341 26.0967C168.367 25.8403 168.38 25.6222 168.38 25.4427C168.38 24.7374 168.252 24.109 167.982 23.5447C167.7 22.9805 167.277 22.5445 166.7 22.211ZM166.61 25.6351C166.341 25.6607 165.789 25.6864 164.943 25.6864C164.584 25.6864 163.93 25.6735 162.981 25.6351C162.481 25.6222 162.147 25.5966 161.968 25.5838C161.968 24.4681 162.199 23.6602 162.635 23.1472C163.071 22.6342 163.648 22.3778 164.379 22.3778C165.058 22.3778 165.61 22.6086 166.007 23.0831C166.418 23.5576 166.623 24.2885 166.623 25.2888C166.623 25.3658 166.623 25.4812 166.61 25.6351Z" fill="white"/>
<path d="M175.125 21.775C174.856 21.775 174.6 21.8263 174.356 21.9289C174.112 22.0315 173.894 22.1597 173.702 22.3265C173.599 22.4162 173.42 22.6342 173.176 22.9548C172.933 23.2754 172.676 23.6089 172.381 23.9423C172.381 23.1344 172.407 22.5316 172.432 22.1341C172.432 22.0828 172.445 22.0315 172.445 21.9802C172.445 21.9161 172.432 21.8648 172.407 21.8391C172.381 21.8135 172.343 21.7878 172.304 21.7878C172.266 21.7878 172.176 21.8135 172.048 21.8776C171.458 22.1597 170.522 22.3906 169.239 22.5701V23.1087C169.97 23.1087 170.381 23.1216 170.483 23.1472C170.586 23.1857 170.663 23.237 170.701 23.3011C170.74 23.3652 170.765 23.596 170.778 23.9679C170.791 24.5579 170.804 25.0965 170.804 25.6094V26.7508C170.804 26.8277 170.791 27.7126 170.752 29.4182C170.74 29.726 170.701 29.9568 170.637 30.1107C170.611 30.1876 170.56 30.2517 170.509 30.2902C170.457 30.3287 170.368 30.3672 170.265 30.38C170.214 30.3928 169.816 30.4056 169.098 30.4185V30.9571C169.868 30.9186 170.65 30.893 171.458 30.893C172.24 30.893 173.202 30.9186 174.318 30.9571V30.4185C173.484 30.3672 172.958 30.303 172.766 30.2517C172.676 30.2261 172.599 30.1748 172.561 30.1363C172.522 30.085 172.484 30.0081 172.458 29.9055C172.432 29.8029 172.42 29.5464 172.407 29.1489C172.381 28.0332 172.355 27.2637 172.355 26.8534V25.8659C172.355 25.058 172.522 24.4553 172.868 24.0449C173.215 23.6473 173.625 23.4422 174.112 23.4422C174.407 23.4422 174.651 23.5063 174.843 23.6473C175.036 23.7884 175.202 24.0064 175.356 24.3142H175.779C175.792 23.673 175.844 22.9292 175.946 22.0828L175.895 21.9546C175.651 21.8391 175.382 21.775 175.125 21.775Z" fill="white"/>
<path d="M182.281 26.225C181.974 26.0839 181.422 25.9044 180.627 25.6992L179.05 25.3144C178.755 25.2247 178.524 25.1221 178.357 25.0195C178.19 24.9041 178.062 24.763 177.96 24.5835C177.857 24.4039 177.806 24.1987 177.806 23.9423C177.806 23.4934 177.972 23.1087 178.319 22.7753C178.665 22.4418 179.114 22.2751 179.665 22.2751C180.063 22.2751 180.396 22.3264 180.665 22.429C180.935 22.5316 181.153 22.647 181.332 22.7753C181.499 22.9035 181.627 23.0318 181.691 23.1472C181.756 23.2626 181.82 23.3908 181.858 23.5319C181.897 23.673 181.935 23.9807 181.974 24.4424H182.512C182.525 23.7114 182.563 22.9933 182.602 22.288C182.268 22.1212 181.845 21.9802 181.32 21.8776C180.794 21.7622 180.332 21.7109 179.922 21.7109C179.255 21.7109 178.639 21.8391 178.075 22.1084C177.511 22.3777 177.1 22.7112 176.831 23.1344C176.562 23.5575 176.434 24.0192 176.434 24.5194C176.434 24.8656 176.498 25.1862 176.613 25.4683C176.741 25.7633 176.908 26.0069 177.113 26.1993C177.318 26.3917 177.601 26.5584 177.96 26.6866C178.19 26.7636 178.716 26.9046 179.524 27.0842C180.332 27.2637 180.858 27.4176 181.102 27.533C181.345 27.6484 181.538 27.8023 181.666 28.0075C181.794 28.2127 181.858 28.4435 181.858 28.7128C181.858 29.3156 181.653 29.7772 181.23 30.1235C180.819 30.4697 180.281 30.6364 179.627 30.6364C179.229 30.6364 178.934 30.6236 178.742 30.598C178.55 30.5723 178.357 30.521 178.165 30.4441C177.972 30.3671 177.806 30.2517 177.639 30.1107C177.485 29.9696 177.357 29.79 177.28 29.5849C177.203 29.3797 177.152 29.1617 177.113 28.9565C177.088 28.7385 177.062 28.4435 177.062 28.0844H176.485C176.472 28.9052 176.459 29.4566 176.434 29.7131C176.421 29.9696 176.382 30.2389 176.318 30.5082C176.305 30.5723 176.305 30.6236 176.305 30.6749C176.305 30.7134 176.318 30.7519 176.344 30.7647C176.382 30.8032 176.652 30.8673 177.152 30.9699C178.062 31.1366 178.793 31.2135 179.332 31.2135C180.524 31.2135 181.473 30.8929 182.179 30.2517C182.884 29.6105 183.243 28.8667 183.243 28.0075C183.243 27.5715 183.153 27.1996 182.961 26.8918C182.833 26.5969 182.589 26.366 182.281 26.225Z" fill="white"/>
<path d="M186.68 19.6719C186.975 19.6719 187.219 19.5693 187.437 19.3513C187.655 19.1333 187.757 18.8896 187.757 18.5947C187.757 18.2997 187.655 18.0432 187.449 17.8252C187.244 17.62 186.988 17.5046 186.693 17.5046C186.398 17.5046 186.141 17.6072 185.923 17.8252C185.718 18.0304 185.603 18.2869 185.603 18.5947C185.603 18.8896 185.705 19.1333 185.923 19.3513C186.116 19.5693 186.372 19.6719 186.68 19.6719Z" fill="white"/>
<path d="M187.873 30.303C187.821 30.2646 187.783 30.2133 187.744 30.1491C187.68 30.0081 187.642 29.7772 187.642 29.4566C187.642 29.3284 187.616 28.4307 187.59 26.7764V25.0452C187.59 24.327 187.616 23.2883 187.667 21.9417L187.462 21.7878C186.629 22.1854 185.59 22.4547 184.359 22.5829V23.1215C185.115 23.1215 185.539 23.1472 185.628 23.1985C185.731 23.2498 185.795 23.3139 185.834 23.4165C185.898 23.596 185.923 24.1603 185.923 25.1093V26.7764C185.885 28.5205 185.872 29.431 185.872 29.5079C185.859 29.8285 185.808 30.0594 185.744 30.1876C185.705 30.2517 185.654 30.303 185.577 30.3415C185.5 30.38 185.398 30.4056 185.269 30.4185L184.359 30.4313V30.9699C185.513 30.9314 186.346 30.9058 186.859 30.9058C187.437 30.9058 188.206 30.9314 189.181 30.9699V30.4313C188.514 30.4185 188.155 30.4056 188.116 30.4056C188.001 30.38 187.924 30.3415 187.873 30.303Z" fill="white"/>
<path d="M192.605 23.3909C193.207 23.3909 193.669 23.378 194.003 23.378C194.336 23.378 194.708 23.378 195.105 23.3909L195.311 22.506L195.247 22.4419C195.08 22.4547 194.836 22.4675 194.503 22.4803C193.9 22.4932 193.579 22.4932 193.515 22.4932C193.413 22.4932 193.105 22.4932 192.605 22.4803C192.682 20.685 192.759 19.518 192.836 18.9922L192.605 18.7998C192.194 19.0563 191.656 19.3 190.989 19.5308C191.027 19.954 191.04 20.9158 191.04 22.4291C190.668 22.6214 190.155 22.8394 189.527 23.0831V23.4806C189.925 23.455 190.284 23.4293 190.591 23.4293H190.976V27.392C190.976 27.5074 190.976 27.6228 190.963 27.7254C190.95 28.2384 190.938 28.7129 190.925 29.1489C190.95 29.5977 191.027 29.9311 191.13 30.1363C191.233 30.3415 191.374 30.5211 191.54 30.6621C191.707 30.8032 191.887 30.9058 192.092 30.9827C192.297 31.0597 192.566 31.0981 192.9 31.0981C193.169 31.0981 193.413 31.0853 193.631 31.0597C193.836 31.034 194.067 30.9699 194.31 30.8801C194.592 30.6236 194.875 30.38 195.182 30.1492L195.067 29.7773C194.823 29.867 194.618 29.9183 194.451 29.944C194.285 29.9696 194.08 29.9824 193.823 29.9824C193.477 29.944 193.233 29.8798 193.092 29.7901C192.951 29.7131 192.836 29.5977 192.746 29.4567C192.656 29.3156 192.592 29.1617 192.566 28.9693C192.541 28.7898 192.528 28.2127 192.553 27.2766L192.605 23.3909Z" fill="white"/>
<path d="M204.326 22.0571C203.762 22.0571 203.108 22.0315 202.377 21.993V22.5701C203.044 22.6342 203.428 22.6983 203.531 22.7625C203.633 22.8266 203.685 22.9292 203.685 23.0446C203.685 23.1215 203.672 23.2113 203.646 23.3139C203.569 23.6088 203.274 24.3783 202.774 25.6222C202.274 26.8662 201.928 27.7126 201.735 28.1614L201.235 29.2899C200.992 28.7385 200.684 28.0203 200.325 27.1226L199.722 25.6351C199.504 25.0836 199.26 24.4168 199.017 23.6345C198.914 23.3139 198.85 23.1087 198.85 23.0061C198.85 22.8394 198.927 22.724 199.094 22.6599C199.183 22.6214 199.568 22.5829 200.222 22.5316V21.993C199.53 22.0315 198.812 22.0571 198.055 22.0571C197.285 22.0571 196.503 22.0315 195.721 21.993V22.5316C196.17 22.5829 196.465 22.647 196.593 22.724C196.721 22.8009 196.849 22.9548 196.965 23.1985C197.247 23.8012 197.619 24.6476 198.068 25.7761L199.581 29.5336C199.863 30.2517 200.107 30.8929 200.312 31.4572C200.043 32.1625 199.748 32.855 199.401 33.5347C199.183 33.9835 198.991 34.3041 198.824 34.4837C198.658 34.6632 198.491 34.8043 198.299 34.894C198.106 34.9838 197.914 35.0223 197.722 35.0223C197.529 35.0223 197.388 35.0095 197.285 34.971C197.183 34.9453 197.093 34.894 197.003 34.8299C196.914 34.7658 196.811 34.6889 196.696 34.5863H196.465L195.977 36.061C196.183 36.1765 196.375 36.2534 196.542 36.3047C196.708 36.356 196.901 36.3816 197.106 36.3816C197.542 36.3816 197.94 36.2919 198.299 36.0995C198.658 35.92 198.978 35.6507 199.235 35.2916C199.491 34.9325 199.799 34.3426 200.158 33.509L202.364 28.3666C203.338 26.2378 204.005 24.8015 204.364 24.0705C204.723 23.3395 204.993 22.9163 205.172 22.7881C205.352 22.6599 205.595 22.5957 205.929 22.5829L206.019 22.0058C205.454 22.0443 204.89 22.0571 204.326 22.0571Z" fill="white"/>
</svg>
