<svg width="400" height="103" viewBox="0 0 400 103" fill="none" xmlns="http://www.w3.org/2000/svg">
<path d="M147.527 60.4526L146.862 62.0774C145.533 62.7421 144.129 63.1852 142.8 63.5545C141.471 63.9237 140.067 64.0714 138.59 64.0714C136.818 64.0714 135.193 63.9237 133.568 63.4068C131.943 62.8898 130.614 62.2989 129.506 61.4866C128.398 60.6742 127.364 59.7141 126.774 58.754C126.183 57.7938 125.444 56.6122 125.149 55.3567C124.853 54.0273 124.484 52.7718 124.484 51.2947C124.484 47.5281 125.814 44.4262 128.398 41.9891C130.983 39.5519 134.602 38.3702 138.96 38.3702C140.067 38.3702 141.101 38.3702 141.914 38.5179C142.874 38.6656 143.834 38.8133 145.163 39.1826C146.493 39.478 147.305 39.6996 147.6 39.8473C147.305 40.512 147.083 41.1767 146.936 41.7675C146.788 42.7276 146.64 43.9093 146.64 45.1648H145.533V43.023C145.385 41.9152 144.72 41.1028 143.612 40.4381C142.505 39.9211 140.88 39.6257 138.59 39.6257C136.965 39.6257 135.488 39.7734 134.381 40.2904C133.273 40.5858 132.239 41.2505 131.279 42.2106C130.466 43.023 129.654 44.1308 129.137 45.4602C128.62 46.7896 128.325 48.4144 128.325 50.4823C128.325 54.1011 129.432 56.8337 131.574 58.9755C133.716 61.1173 136.596 62.2251 140.215 62.2251C141.84 62.2251 143.317 62.0774 144.646 61.5604C145.606 61.265 146.419 60.748 147.379 60.0833L147.527 60.4526Z" fill="white"/>
<path d="M148.561 55.5782C148.561 52.9933 149.373 50.8516 150.998 49.2268C152.623 47.602 154.764 46.7896 157.349 46.7896C159.786 46.7896 161.78 47.602 163.405 49.0791C165.03 50.5561 165.695 52.6979 165.695 55.1351C165.695 56.7599 165.399 58.3847 164.587 59.8618C163.775 61.3388 162.667 62.2989 161.19 63.1113C159.713 63.9237 158.088 64.2192 156.463 64.2192C155.134 64.2192 154.026 64.0715 153.066 63.5545C152.106 63.0375 151.441 62.5944 150.776 61.782C150.111 61.1173 149.816 60.3049 149.447 59.6402C148.708 58.3108 148.561 56.9815 148.561 55.5782ZM151.81 54.2488C151.81 55.7259 151.958 57.203 152.475 58.6801C152.992 60.1572 153.583 61.265 154.617 61.9297C155.577 62.5944 156.537 62.8898 157.571 62.8898C158.9 62.8898 160.008 62.3728 160.968 61.265C161.928 60.1572 162.297 58.5324 162.297 56.3906C162.297 54.6181 162.002 52.9933 161.485 51.664C160.968 50.3346 160.156 49.3745 159.343 48.7098C158.531 48.1928 157.571 47.8974 156.611 47.8974C155.134 47.8974 154.026 48.4144 153.213 49.5222C152.253 50.63 151.81 51.9594 151.81 54.2488Z" fill="white"/>
<path d="M165.769 63.5545V62.5944C167.098 62.5944 167.689 62.5944 167.91 62.5944C168.058 62.5944 168.206 62.4467 168.427 62.4467C168.575 62.4467 168.575 62.299 168.575 62.1512C168.723 61.8558 168.723 61.4866 168.723 60.8219C168.723 57.72 168.871 56.0952 168.871 55.9475V53.8057C168.871 52.8456 168.871 51.8855 168.871 50.8516C168.871 50.1869 168.871 49.7438 168.723 49.5222C168.723 49.3745 168.575 49.3745 168.427 49.2268C168.28 49.2268 167.467 49.0791 166.138 49.2268V48.1928C168.427 47.8974 170.2 47.3804 171.382 46.8634C171.529 46.7157 171.677 46.7157 171.899 46.7157C171.899 46.7157 172.046 46.7157 172.046 46.8634C172.046 46.8634 172.046 47.0111 172.046 47.1589C172.046 47.1589 172.046 47.3066 172.046 47.4543C172.046 48.119 171.899 49.2268 171.899 50.7039C172.416 50.0392 172.859 49.596 173.376 48.9314C173.893 48.2667 174.188 47.9712 174.336 47.8235C174.631 47.5281 175.148 47.3066 175.444 47.1589C175.961 47.0111 176.404 46.8634 176.921 46.8634C177.438 46.8634 177.881 47.0111 178.398 47.1589L178.545 47.4543C178.398 49.0791 178.25 50.4084 178.25 51.5162H177.29C176.995 50.9993 176.625 50.5561 176.33 50.1869C176.034 49.8915 175.517 49.8915 175 49.8915C174.04 49.8915 173.376 50.1869 172.711 50.9993C172.046 51.8117 171.751 52.7718 171.751 54.2488V56.0213C171.751 56.8337 171.751 58.1631 171.899 60.231C171.899 60.8957 171.899 61.3388 172.046 61.5604C172.046 61.7081 172.194 61.8558 172.194 62.0774C172.194 62.2251 172.342 62.2251 172.489 62.2251C172.785 62.3728 173.819 62.3728 175.222 62.5205V63.7022C173.08 63.7022 171.455 63.5545 169.978 63.5545C168.575 63.5545 167.098 63.5545 165.769 63.5545Z" fill="white"/>
<path d="M179.653 63.5545V62.5944H181.278C181.573 62.5944 181.795 62.5944 181.795 62.4467C181.943 62.4467 181.943 62.2989 182.09 62.1512C182.238 62.0035 182.238 61.4865 182.386 60.8219C182.386 60.6741 182.386 59.0494 182.533 55.7998V53.658C182.533 52.6979 182.533 51.7378 182.533 50.5561C182.533 49.8914 182.386 49.4483 182.386 49.2268C182.386 49.0791 182.238 49.0791 182.09 48.9313C181.943 48.9313 181.13 48.7836 179.801 48.9313V47.9712C182.09 47.6758 183.863 47.1588 185.044 46.6419C185.192 46.4942 185.34 46.4942 185.561 46.4942C185.709 46.4942 185.709 46.4942 185.709 46.6419C185.709 46.6419 185.709 46.7896 185.709 46.9373C185.709 46.9373 185.709 47.085 185.709 47.2327C185.709 47.7497 185.709 48.5621 185.561 49.8176L188.811 47.085C189.771 46.7896 190.583 46.568 191.544 46.568C192.504 46.568 193.316 46.7157 194.276 47.2327C195.089 47.5281 195.753 48.0451 196.196 48.7098C196.713 49.3745 196.861 50.0392 197.009 50.9993C197.009 51.5162 197.157 52.9195 197.157 55.4305V58.5324C197.157 60.0095 197.157 61.1173 197.304 61.6343C197.304 61.9297 197.452 62.2989 197.6 62.2989C197.747 62.4466 197.895 62.4466 198.117 62.5944H199.889V63.5545C198.781 63.5545 197.747 63.4068 196.935 63.4068C196.27 63.4068 195.162 63.4068 193.685 63.5545C193.833 60.6003 193.981 58.8278 193.981 58.0154V55.0612C193.981 53.2887 193.981 51.9594 193.833 51.4424C193.685 50.63 193.168 49.9653 192.504 49.5222C191.839 49.0052 190.879 48.8575 189.919 48.8575C189.106 48.8575 188.294 49.0052 187.482 49.5222C186.669 50.0392 186.152 50.3346 185.857 50.9993C185.561 51.5162 185.34 52.4763 185.34 53.7319V55.8736C185.34 58.9755 185.488 60.6003 185.488 60.748C185.488 61.4127 185.635 61.7081 185.635 62.0774C185.635 62.2251 185.783 62.2251 185.783 62.3728C185.931 62.3728 185.931 62.5205 186.3 62.5205C186.3 62.5205 186.965 62.5205 188.22 62.5205V63.4806C186.743 63.4806 185.488 63.3329 184.306 63.3329C183.42 63.5545 181.795 63.5545 179.653 63.5545Z" fill="white"/>
<path d="M214.66 60.8957L214.143 62.2251C213.331 62.7421 212.666 63.0375 212.37 63.1852C211.854 63.4806 211.263 63.7022 210.45 63.8499C209.786 63.9976 208.973 64.1453 208.161 64.1453C206.684 64.1453 205.207 63.8499 203.951 63.1852C202.622 62.5205 201.662 61.5604 200.997 60.231C200.332 58.9017 200.037 57.4984 200.037 55.6521C200.037 54.3227 200.185 53.0672 200.554 52.0332C200.849 50.9254 201.366 50.113 201.883 49.596C202.179 49.3006 202.696 48.7836 203.508 48.2667C204.173 47.7497 204.985 47.4543 205.65 47.1588C206.61 46.8634 207.57 46.4942 208.604 46.4942C209.933 46.4942 211.041 46.7896 212.223 47.3066C213.183 47.9712 213.995 48.7836 214.512 49.7437C215.029 50.7038 215.325 51.8855 215.325 53.141C215.325 53.4364 215.325 53.8057 215.325 54.2488C214.512 54.3965 213.7 54.5443 213.035 54.5443C211.706 54.692 210.598 54.692 209.269 54.692H203.582C203.582 56.3168 203.877 57.7938 204.394 58.7539C204.911 59.714 205.724 60.5264 206.684 61.0434C207.644 61.5604 208.604 61.8558 209.786 61.8558C210.45 61.8558 211.263 61.7081 211.927 61.5604C212.592 61.4127 213.552 60.8957 214.512 60.231L214.66 60.8957ZM203.582 53.7319C203.877 53.7319 204.542 53.7319 205.354 53.8796C207.127 53.8796 208.309 54.0273 208.973 54.0273C210.598 54.0273 211.558 54.0273 212.075 53.8796C212.075 53.5842 212.075 53.3626 212.075 53.2149C212.075 51.4424 211.78 49.9653 210.967 49.1529C210.155 48.3405 209.195 47.8235 208.013 47.8235C206.684 47.8235 205.576 48.3405 204.764 49.3006C203.951 50.1869 203.582 51.6639 203.582 53.7319Z" fill="white"/>
<path d="M215.472 63.5545V62.5944H217.097C217.393 62.5944 217.614 62.5944 217.762 62.4467C217.91 62.4467 217.91 62.2989 218.057 62.1512C218.205 62.0035 218.205 61.4865 218.205 60.8219C218.205 60.6742 218.205 59.0494 218.353 55.7998V48.4882C218.353 46.568 218.353 44.574 218.205 42.4322C218.205 40.9551 218.057 40.2904 218.057 40.1427C218.057 39.995 217.91 39.995 217.762 39.8473C217.614 39.8473 216.802 39.6996 215.325 39.6996V38.5918C217.91 38.2964 219.756 37.7794 220.864 37.2624C221.011 37.2624 221.159 37.1147 221.159 37.1147H221.307V37.2624C221.307 37.2624 221.307 37.4101 221.307 37.5578V38.2225C221.307 40.3643 221.159 42.1368 221.159 43.6138V46.3465V55.5782C221.159 58.6801 221.307 60.3049 221.307 60.4526C221.307 61.1173 221.307 61.4127 221.455 61.782C221.455 61.9297 221.602 61.9297 221.602 62.0774C221.75 62.0774 221.75 62.2251 222.119 62.2251C222.119 62.2251 222.784 62.2251 224.04 62.2251V63.1852C222.415 63.0375 221.085 63.0375 219.83 63.0375C218.722 63.4068 217.245 63.5545 215.472 63.5545Z" fill="white"/>
<path d="M225.886 63.5545V62.5944H227.511C227.806 62.5944 228.028 62.5944 228.175 62.4467C228.323 62.4467 228.323 62.2989 228.471 62.1512C228.618 62.0035 228.618 61.4865 228.618 60.8219C228.618 60.6742 228.618 59.0494 228.766 55.7998V48.4882C228.766 46.568 228.766 44.574 228.618 42.4322C228.618 40.9551 228.471 40.2904 228.471 40.1427C228.471 39.995 228.323 39.995 228.175 39.8473C228.028 39.8473 227.215 39.6996 225.738 39.6996V38.5918C228.323 38.2964 230.169 37.7794 231.277 37.2624C231.425 37.2624 231.573 37.1147 231.573 37.1147H231.72V37.2624C231.72 37.2624 231.72 37.4101 231.72 37.5578V38.2225C231.72 40.3643 231.573 42.1368 231.573 43.6138V46.3465V55.5782C231.573 58.6801 231.72 60.3049 231.72 60.4526C231.72 61.1173 231.72 61.4127 231.868 61.782C231.868 61.9297 232.016 61.9297 232.016 62.0774C232.163 62.0774 232.163 62.2251 232.533 62.2251C232.533 62.2251 233.197 62.2251 234.453 62.2251V63.1852C232.828 63.0375 231.499 63.0375 230.243 63.0375C229.135 63.4068 227.732 63.5545 225.886 63.5545Z" fill="white"/>
<path d="M242.355 39.7734V38.5918C244.276 38.7395 246.122 38.7395 247.747 38.7395C249.372 38.7395 250.996 38.7395 252.621 38.5918V39.6996C251.292 39.6996 250.332 39.8473 250.184 39.8473C249.888 39.995 249.667 39.995 249.519 40.3643C249.371 40.512 249.224 41.1767 249.224 41.9891C249.224 42.1368 249.224 43.9093 249.224 47.0112V53.5103C249.224 55.9475 249.371 57.72 249.741 58.3847C250.036 59.1971 250.553 59.8618 251.218 60.3049C251.735 60.6003 252.547 60.9696 253.36 61.265C254.32 61.4127 255.28 61.5604 256.461 61.5604C257.791 61.5604 258.899 61.4127 259.859 61.0434C260.819 60.748 261.631 60.3788 262.148 59.9356C262.665 59.4186 262.961 58.9755 263.256 58.3108C263.551 57.6461 263.773 56.9815 263.773 56.0214C263.921 55.0613 263.921 53.7319 263.921 52.2548V46.8634C263.921 45.2387 263.921 43.7616 263.921 42.1368C263.921 41.029 263.773 40.3643 263.773 40.2166C263.625 40.0689 263.478 39.9212 263.108 39.6996C262.813 39.5519 262.001 39.5519 260.671 39.5519V38.5918C262.591 38.7395 263.921 38.7395 264.881 38.7395C265.693 38.7395 267.17 38.7395 269.312 38.5918V39.6996C267.835 39.6996 267.023 39.8473 266.727 39.8473C266.432 39.995 266.21 39.995 266.063 40.3643C265.915 40.512 265.915 41.1767 265.767 41.9891C265.767 42.1368 265.767 43.9093 265.767 47.0112V52.8456C265.767 55.7998 265.619 57.72 265.102 58.9017C264.807 60.0095 263.995 61.0434 262.813 62.0035C262.001 62.6682 261.04 63.1114 259.711 63.4806C258.382 63.776 257.126 63.9976 255.501 63.9976C253.729 63.9976 252.104 63.8499 250.775 63.3329C249.445 62.8159 248.485 62.3728 247.821 61.7081C247.156 61.0434 246.713 60.231 246.343 59.5664C246.048 58.6063 245.827 56.9815 245.827 54.692V47.085C245.827 45.4602 245.827 43.9831 245.827 42.3583C245.827 41.2505 245.679 40.5858 245.531 40.4381C245.383 40.2904 245.236 40.1427 244.866 39.9212C244.497 39.9212 243.685 39.9212 242.355 39.7734Z" fill="white"/>
<path d="M266.949 63.5545V62.5944H268.574C268.869 62.5944 269.09 62.5944 269.09 62.4467C269.238 62.4467 269.238 62.2989 269.386 62.1512C269.534 62.0035 269.534 61.4865 269.681 60.8219C269.681 60.6741 269.681 59.0494 269.829 55.7998V53.658C269.829 52.6979 269.829 51.7378 269.829 50.5561C269.829 49.8914 269.681 49.4483 269.681 49.2268C269.681 49.0791 269.534 49.0791 269.386 48.9313C269.238 48.9313 268.426 48.7836 267.096 48.9313V47.9712C269.386 47.6758 271.158 47.1588 272.34 46.6419C272.488 46.4942 272.635 46.4942 272.857 46.4942C273.005 46.4942 273.005 46.4942 273.005 46.6419C273.005 46.7896 273.005 46.7896 273.005 46.9373C273.005 46.9373 273.005 47.085 273.005 47.2327C273.005 47.7497 273.005 48.5621 272.857 49.8176L276.107 47.085C277.067 46.7896 277.879 46.568 278.839 46.568C279.799 46.568 280.612 46.7157 281.572 47.2327C282.384 47.5281 283.049 48.0451 283.492 48.7098C284.009 49.3745 284.157 50.0392 284.304 50.9993C284.304 51.5162 284.452 52.9195 284.452 55.4305V58.5324C284.452 60.0095 284.452 61.1173 284.6 61.6343C284.6 61.9297 284.748 62.2989 284.895 62.2989C285.043 62.4466 285.191 62.4466 285.412 62.5944H287.185V63.5545C286.077 63.5545 285.043 63.4068 284.231 63.4068C283.566 63.4068 282.458 63.4068 280.981 63.5545C281.129 60.6003 281.276 58.8278 281.276 58.0154V55.0612C281.276 53.2887 281.276 51.9594 281.129 51.4424C280.981 50.63 280.464 49.9653 279.799 49.5222C279.135 49.0052 278.175 48.8575 277.214 48.8575C276.402 48.8575 275.59 49.0052 274.777 49.5222C274.113 50.0392 273.448 50.3346 273.152 50.9993C272.857 51.5162 272.635 52.4763 272.635 53.7319V55.8736C272.635 58.9755 272.783 60.6003 272.783 60.748C272.783 61.4127 272.931 61.7081 272.931 62.0774C272.931 62.2251 273.079 62.2251 273.079 62.3728C273.226 62.3728 273.226 62.5205 273.596 62.5205C273.596 62.5205 274.26 62.5205 275.516 62.5205V63.4806C274.039 63.4806 272.783 63.3329 271.602 63.3329C270.715 63.5545 269.091 63.5545 266.949 63.5545Z" fill="white"/>
<path d="M288.145 49.2268V48.1928C290.434 47.8974 292.355 47.3804 293.832 46.7157L294.127 47.0111C293.979 49.4483 293.979 51.4424 293.979 52.6979V55.9475C293.979 59.0494 294.127 60.6742 294.127 60.8219C294.127 61.4866 294.127 61.782 294.275 62.1512C294.275 62.299 294.423 62.299 294.423 62.4467C294.57 62.4467 294.57 62.5944 294.939 62.5944C294.939 62.5944 295.604 62.5944 296.86 62.5944V63.7022C295.087 63.7022 293.61 63.5545 292.65 63.5545C291.69 63.5545 290.213 63.5545 288.071 63.7022V62.7421H289.696C289.991 62.7421 290.213 62.7421 290.213 62.5944C290.361 62.5944 290.361 62.4467 290.508 62.299C290.656 62.1512 290.656 61.6343 290.804 60.9696C290.804 60.8219 290.804 59.1971 290.951 55.9475V52.8456C290.951 51.0731 290.951 50.113 290.804 49.7437C290.804 49.596 290.656 49.4483 290.508 49.4483C290.287 49.2268 289.474 49.2268 288.145 49.2268ZM292.355 38.961C292.872 38.961 293.315 39.1088 293.832 39.6257C294.127 39.9211 294.349 40.4381 294.349 41.1028C294.349 41.6198 294.201 42.0629 293.684 42.4322C293.167 42.7276 292.872 43.0969 292.355 43.0969C291.838 43.0969 291.394 42.9492 290.878 42.4322C290.361 41.9152 290.213 41.6198 290.213 41.1028C290.213 40.5858 290.361 40.1427 290.878 39.6257C291.394 39.1088 291.69 38.961 292.355 38.961Z" fill="white"/>
<path d="M304.91 63.7022C304.393 62.5944 304.097 61.782 303.95 61.265L302.473 57.8677L298.854 49.596C298.706 49.0791 298.337 48.7837 298.189 48.6359C298.041 48.4882 297.894 48.3405 297.672 48.3405C297.524 48.3405 297.007 48.3405 296.343 48.1928V47.2327C298.263 47.2327 299.74 47.3804 300.552 47.3804C301.513 47.3804 302.842 47.3804 304.614 47.2327V48.1928C303.285 48.1928 302.694 48.3405 302.325 48.4882C301.956 48.6359 302.03 48.7837 302.03 49.0052C302.03 49.3006 302.177 50.113 302.694 51.2947L304.836 56.686L305.353 57.7939C306.018 59.2709 306.313 60.0833 306.461 60.5265L308.233 56.6122C308.381 56.4645 308.898 55.1351 309.858 52.6979C310.375 51.2208 310.818 50.2607 310.966 49.4483C310.966 49.3006 310.966 49.1529 310.966 48.9314C310.966 48.7837 310.966 48.6359 310.818 48.4144C310.523 48.2667 309.858 48.119 308.529 48.119V47.1589C310.301 47.1589 311.483 47.3066 311.926 47.3066C312.443 47.3066 313.403 47.3066 315.323 47.1589V48.119C314.659 48.119 314.215 48.2667 313.846 48.4144C313.699 48.5621 313.329 48.9314 313.182 49.2268C313.034 49.5222 312.369 50.7039 311.261 52.9933L309.637 56.6122C309.341 57.2769 308.307 59.7141 306.535 63.776C306.682 63.7022 304.91 63.7022 304.91 63.7022Z" fill="white"/>
<path d="M330.02 60.8957L329.503 62.2251C328.691 62.7421 328.026 63.0375 327.731 63.1852C327.214 63.4806 326.623 63.7022 325.811 63.8499C325.146 63.9976 324.333 64.1453 323.521 64.1453C322.044 64.1453 320.567 63.8499 319.311 63.1852C318.056 62.5205 317.022 61.5604 316.357 60.231C315.693 58.9017 315.397 57.4984 315.397 55.6521C315.397 54.3227 315.545 53.0672 315.914 52.0332C316.209 50.9254 316.726 50.113 317.243 49.596C317.539 49.3006 318.056 48.7836 318.868 48.2667C319.533 47.7497 320.345 47.4543 321.01 47.1588C321.97 46.8634 322.93 46.4942 323.964 46.4942C325.294 46.4942 326.401 46.7896 327.583 47.3066C328.543 47.9712 329.356 48.7836 329.873 49.7437C330.389 50.7038 330.685 51.8855 330.685 53.141C330.685 53.4364 330.685 53.8057 330.685 54.2488C329.873 54.3965 329.06 54.5443 328.395 54.5443C327.066 54.692 325.958 54.692 324.629 54.692H318.942C318.942 56.3168 319.238 57.7938 319.755 58.7539C320.271 59.714 321.084 60.5264 322.044 61.0434C323.004 61.5604 323.964 61.8558 325.146 61.8558C325.811 61.8558 326.623 61.7081 327.288 61.5604C327.952 61.4127 328.912 60.8957 329.873 60.231L330.02 60.8957ZM318.794 53.7319C319.09 53.7319 319.754 53.7319 320.567 53.8796C322.339 53.8796 323.521 54.0273 324.186 54.0273C325.811 54.0273 326.771 54.0273 327.288 53.8796C327.288 53.5842 327.288 53.3626 327.288 53.2149C327.288 51.4424 326.992 49.9653 326.18 49.1529C325.367 48.3405 324.407 47.8235 323.226 47.8235C321.896 47.8235 320.788 48.3405 319.976 49.3006C319.09 50.1869 318.794 51.6639 318.794 53.7319Z" fill="white"/>
<path d="M331.497 63.5545V62.5944C332.827 62.5944 333.418 62.5944 333.639 62.5944C333.861 62.5944 333.935 62.4467 334.156 62.4467C334.378 62.4467 334.304 62.299 334.304 62.1512C334.451 61.8558 334.451 61.4866 334.451 60.8219C334.451 57.72 334.599 56.0952 334.599 55.9475V53.8057C334.599 52.8456 334.599 51.8855 334.599 50.8516C334.599 50.1869 334.599 49.7438 334.451 49.5222C334.451 49.3745 334.304 49.3745 334.156 49.2268C334.008 49.2268 333.196 49.0791 331.867 49.2268V48.1928C334.156 47.8974 335.929 47.3804 337.11 46.8634C337.258 46.7157 337.406 46.7157 337.627 46.7157C337.849 46.7157 337.775 46.7157 337.775 46.8634C337.775 47.0111 337.775 47.0111 337.775 47.1589C337.775 47.1589 337.775 47.3066 337.775 47.4543C337.775 48.119 337.627 49.2268 337.627 50.7039C338.144 50.0392 338.587 49.596 339.104 48.9314C339.621 48.2667 339.917 47.9712 340.064 47.8235C340.36 47.5281 340.877 47.3066 341.172 47.1589C341.689 47.0111 342.132 46.8634 342.649 46.8634C343.166 46.8634 343.609 47.0111 344.126 47.1589L344.274 47.4543C344.126 49.0791 343.979 50.4084 343.979 51.5162H343.166C342.871 50.9993 342.502 50.5561 342.206 50.1869C341.911 49.8915 341.394 49.8915 340.877 49.8915C339.917 49.8915 339.252 50.1869 338.587 50.9993C337.923 51.8117 337.627 52.7718 337.627 54.2488V56.0213C337.627 56.8337 337.627 58.1631 337.775 60.231C337.775 60.8957 337.775 61.3388 337.923 61.5604C338.07 61.7081 338.07 61.8558 338.07 62.0774C338.07 62.2251 338.218 62.2251 338.366 62.2251C338.661 62.3728 339.695 62.3728 341.098 62.5205V63.7022C338.957 63.7022 337.332 63.5545 335.855 63.5545C334.23 63.5545 332.901 63.5545 331.497 63.5545Z" fill="white"/>
<path d="M345.677 58.3108H346.637C346.637 58.9755 346.637 59.4186 346.785 59.9356C346.933 60.4526 346.933 60.748 347.081 61.0434C347.228 61.3389 347.376 61.7081 347.745 62.0035C348.041 62.299 348.41 62.5205 348.705 62.6682C349.001 62.8159 349.37 62.8159 349.665 62.9636C349.961 62.9636 350.478 62.9636 351.29 62.9636C352.398 62.9636 353.432 62.6682 354.244 62.0035C355.057 61.3388 355.352 60.5265 355.352 59.4186C355.352 58.9017 355.204 58.4585 355.057 58.0893C354.909 57.7939 354.392 57.4246 354.097 57.2769C353.58 57.1292 352.62 56.7599 351.142 56.4645C349.665 56.1691 348.705 55.7998 348.188 55.6521C347.524 55.3567 347.08 55.1351 346.564 54.8397C346.047 54.5443 345.899 54.0273 345.603 53.5103C345.456 52.9933 345.308 52.4025 345.308 51.7378C345.308 50.7777 345.456 49.9653 345.973 49.1529C346.49 48.3405 347.302 47.6758 348.262 47.2327C349.222 46.7157 350.404 46.568 351.659 46.568C352.472 46.568 353.284 46.7157 354.244 46.8634C355.204 47.0111 356.017 47.3804 356.682 47.6758C356.682 49.0052 356.534 50.2607 356.534 51.5901H355.574C355.574 50.7777 355.426 50.113 355.426 49.9653C355.426 49.6699 355.278 49.4483 355.131 49.3006C354.983 49.1529 354.835 48.7836 354.466 48.6359C354.097 48.4882 353.801 48.119 353.358 47.9713C352.841 47.8235 352.25 47.6758 351.586 47.6758C350.625 47.6758 349.813 47.9713 349.148 48.6359C348.484 49.3006 348.188 49.9653 348.188 50.7777C348.188 51.2947 348.336 51.5901 348.484 51.8855C348.631 52.1809 349.001 52.5502 349.148 52.6979C349.444 52.8456 349.813 52.9933 350.478 53.2149L353.432 53.8796C354.909 54.175 355.869 54.5443 356.534 54.8397C357.051 55.1351 357.494 55.5044 357.863 56.1691C358.159 56.686 358.38 57.4984 358.38 58.3108C358.38 59.9356 357.715 61.265 356.46 62.3728C355.131 63.4806 353.358 64.1453 351.216 64.1453C350.256 64.1453 348.927 63.9976 347.154 63.6283C346.194 63.4806 345.677 63.3329 345.677 63.3329V63.1852C345.677 63.1852 345.677 63.0375 345.677 62.8898C345.825 62.3728 345.825 61.9297 345.825 61.4127C345.677 60.8957 345.677 59.7879 345.677 58.3108Z" fill="white"/>
<path d="M359.636 49.2268V48.1928C361.925 47.8974 363.845 47.3804 365.323 46.7157L365.618 47.0111C365.47 49.4483 365.47 51.4424 365.47 52.6979V55.9475C365.47 59.0494 365.618 60.6742 365.618 60.8219C365.618 61.4866 365.618 61.782 365.766 62.1512C365.766 62.299 365.913 62.299 365.913 62.4467C366.061 62.4467 366.061 62.5944 366.43 62.5944C366.43 62.5944 367.095 62.5944 368.351 62.5944V63.7022C366.578 63.7022 365.101 63.5545 364.141 63.5545C363.181 63.5545 361.704 63.5545 359.562 63.7022V62.7421H361.187C361.482 62.7421 361.704 62.7421 361.704 62.5944C361.851 62.5944 361.851 62.4467 361.999 62.299C362.147 62.1512 362.147 61.6343 362.294 60.9696C362.294 60.8219 362.294 59.1971 362.442 55.9475V52.8456C362.442 51.0731 362.442 50.113 362.294 49.7437C362.294 49.596 362.147 49.4483 361.999 49.4483C361.778 49.2268 361.113 49.2268 359.636 49.2268ZM363.919 38.961C364.436 38.961 364.879 39.1088 365.396 39.6257C365.692 39.9211 365.913 40.4381 365.913 41.1028C365.913 41.6198 365.766 42.0629 365.249 42.4322C364.732 42.8015 364.436 43.0969 363.919 43.0969C363.402 43.0969 362.959 42.9492 362.442 42.4322C361.925 41.9152 361.778 41.6198 361.778 41.1028C361.778 40.5858 361.925 40.1427 362.442 39.6257C362.959 39.1088 363.402 38.961 363.919 38.961Z" fill="white"/>
<path d="M369.237 49.8176V49.0052C370.345 48.4882 371.379 48.1928 371.969 47.8974C371.969 45.1648 371.969 43.3184 371.822 42.506C372.93 41.9891 373.963 41.6936 374.776 41.1767L375.293 41.4721C375.145 42.4322 374.997 44.574 374.776 47.8235C375.736 47.8235 376.253 47.8235 376.401 47.8235C376.548 47.8235 377.065 47.8235 378.173 47.8235C378.838 47.8235 379.281 47.8235 379.503 47.8235L379.65 47.9712L379.355 49.596C378.542 49.596 377.878 49.596 377.435 49.596C376.918 49.596 375.958 49.596 374.85 49.596L374.702 56.7599C374.702 58.5324 374.702 59.4925 374.702 59.8618C374.702 60.231 374.85 60.5265 374.997 60.6742C375.145 60.9696 375.293 61.1911 375.662 61.3388C375.958 61.4866 376.327 61.6343 376.992 61.6343C377.508 61.6343 377.804 61.6343 378.099 61.6343C378.395 61.6343 378.764 61.4866 379.207 61.3388L379.355 62.0035C378.838 62.5205 378.247 62.8159 377.73 63.3329C377.213 63.4806 376.918 63.6283 376.401 63.6283C376.105 63.6283 375.588 63.6283 375.071 63.6283C374.407 63.6283 373.963 63.6283 373.594 63.4806C373.299 63.3329 372.93 63.1852 372.634 62.8159C372.339 62.4467 372.117 62.299 371.822 61.8558C371.526 61.3388 371.526 60.8957 371.526 60.0833C371.526 59.2709 371.526 58.4585 371.526 57.4984C371.526 57.3507 371.526 57.203 371.526 56.8337V49.6699H370.862C370.714 49.6699 370.049 49.8176 369.237 49.8176Z" fill="white"/>
<path d="M380.98 73.0078L381.792 70.2752H382.309C382.457 70.4229 382.826 70.5706 382.826 70.7922C382.974 70.9399 383.121 70.9399 383.343 71.0876C383.491 71.0876 383.86 71.2353 384.155 71.2353C384.451 71.2353 384.82 71.2353 385.115 71.0876C385.411 70.9399 385.78 70.7922 386.076 70.2752C386.371 69.9798 386.74 69.3151 387.036 68.5027C387.7 67.1733 388.143 66.0655 388.66 64.7361C388.365 63.776 387.848 62.4467 387.331 61.1173L384.598 54.2488C383.786 52.1071 383.121 50.63 382.678 49.5222C382.531 49.0052 382.161 48.8575 382.014 48.7098C381.866 48.5621 381.201 48.4144 380.389 48.4144V47.4543C381.866 47.4543 383.343 47.602 384.598 47.602C385.854 47.602 387.331 47.602 388.513 47.4543V48.119C387.405 48.119 386.593 48.2667 386.371 48.2667C386.076 48.4144 385.854 48.5621 385.854 48.9313C385.854 49.0791 386.002 49.596 386.149 50.0392C386.666 51.5162 386.962 52.6241 387.479 53.8057L388.587 56.5383C389.251 58.1631 389.916 59.4925 390.211 60.4526L391.172 58.3108C391.467 57.4984 392.132 55.8736 393.092 53.5842C394.052 51.2947 394.569 49.8176 394.717 49.3745C394.717 49.2268 394.717 49.0791 394.717 48.8575C394.717 48.7098 394.569 48.5621 394.421 48.3405C394.273 48.1928 393.609 48.1928 392.279 48.0451V46.9373C393.609 46.9373 394.864 47.085 395.898 47.085C396.858 47.085 398.04 47.085 399 46.9373L398.852 48.0451C398.188 48.0451 397.892 48.1928 397.523 48.3405C397.228 48.4882 396.711 49.3006 396.046 50.63C395.381 51.9594 394.126 54.5443 392.279 58.4585L388.217 67.9119C387.553 69.3889 387.11 70.4968 386.593 71.1614C386.076 71.8261 385.632 72.2693 384.82 72.6385C384.155 72.9339 383.343 73.1555 382.678 73.1555C382.383 73.1555 382.014 73.1555 381.718 73.0078C381.644 73.3032 381.349 73.1555 380.98 73.0078Z" fill="white"/>
<path d="M8.90232 52.1071C11.0441 52.1071 12.2996 50.7777 12.4473 48.3405C12.4473 47.8974 12.4473 47.3065 12.3735 46.7157V46.568H10.601L10.7487 46.9373C10.8225 47.2327 10.8964 47.8235 10.8964 48.2666C10.8225 49.4483 9.86242 50.2607 8.6069 50.113C7.27752 50.0391 6.46513 49.1529 6.46513 47.9712C6.46513 47.5281 6.53898 47.085 6.90825 46.7157L7.20367 46.3464L5.50502 46.051L5.35732 46.2726C5.0619 46.7896 4.98805 47.3804 4.91419 47.8974C4.76648 50.3346 6.09586 51.9594 8.6069 52.0332C8.68075 52.1071 8.75461 52.1071 8.90232 52.1071Z" fill="white"/>
<path d="M9.19773 43.7616C9.71471 43.9093 10.1578 43.9093 10.5271 43.9093C12.1519 43.9093 13.3336 42.9492 13.8505 41.3244C14.146 40.2904 13.9982 39.478 13.5551 38.5918C13.0381 37.7055 12.2257 37.1885 11.1179 36.8193C10.6748 36.6716 10.1578 36.6716 9.86241 36.6716C8.23762 36.6716 7.05596 37.6317 6.53898 39.2564C5.87429 41.3982 6.90825 43.0969 9.19773 43.7616ZM8.01606 39.7734C8.31148 38.8133 9.05002 38.6656 9.64085 38.6656C9.93627 38.6656 10.2317 38.7395 10.601 38.8133C11.3395 39.1087 11.9303 39.4042 12.2257 39.9211C12.3735 40.2904 12.5212 40.5858 12.2996 41.0289C12.0042 41.9891 11.2656 42.1368 10.6748 42.1368C10.3055 42.1368 10.084 42.0629 9.71471 41.9891C8.68075 41.6936 7.64679 40.8812 8.01606 39.7734Z" fill="white"/>
<path d="M16.5093 34.2344L14.0721 32.905L14.146 32.7573C14.4414 32.3142 14.5891 32.3142 14.8845 32.388L17.3217 32.7573L18.2818 30.9848L15.0322 30.6155C14.7368 30.6155 14.5891 30.6155 14.4414 30.6155C14.4414 29.9508 14.0721 29.2861 13.4074 28.9169C13.0382 28.7692 12.7428 28.6214 12.3735 28.6214C11.1918 28.6214 10.601 29.8031 10.0102 30.9109L9.1239 32.5357L15.5492 36.0069L16.5093 34.2344ZM12.6689 31.9449L12.595 32.0926L11.4134 31.5018L11.4872 31.354C11.7826 30.8371 12.0781 30.3201 12.595 30.6155C12.7428 30.6894 12.8905 30.7632 12.9643 30.9848C12.9643 31.2802 12.8166 31.7233 12.6689 31.9449Z" fill="white"/>
<path d="M20.4975 27.8091L17.174 25.0765L21.9007 26.1843L23.1562 24.5595L17.6172 19.9067L16.3616 21.3099L19.7589 24.0425L15.0323 23.0085L13.7029 24.5595L19.3897 29.2123L20.4975 27.8091Z" fill="white"/>
<path d="M28.6952 19.9067L27.7351 18.725L25.6672 20.3498L24.7071 19.242L26.5535 17.691L25.5934 16.5094L23.747 18.0603L23.0085 17.1002L25.0764 15.4754L24.0424 14.2199L20.5713 17.0264L25.1502 22.7131L28.6952 19.9067Z" fill="white"/>
<path d="M34.7513 16.2878L34.0127 14.8846L31.7232 16.214L28.9168 11.1919L27.292 12.0781L30.837 18.4296L34.7513 16.2878Z" fill="white"/>
<path d="M40.955 13.8506L40.3641 12.4474L38.0008 13.2598L36.0806 7.9423L34.2343 8.53313L36.6714 15.4016L40.955 13.8506Z" fill="white"/>
<path d="M48.3404 12.669C48.4881 12.669 48.6358 12.669 48.7835 12.669C49.8175 12.5951 50.556 12.2258 50.9992 11.7089C51.4423 11.1919 51.59 10.4533 51.5161 9.56709L51.1469 4.98813L49.3005 5.06198L49.6698 9.19781C49.7436 10.601 49.1528 10.8965 48.6358 10.9703C48.562 10.9703 48.562 10.9703 48.4881 10.9703C48.045 10.9703 47.4542 10.8226 47.3064 9.34552L46.9372 5.20969L45.0908 5.3574L45.4601 9.93636C45.6817 11.7089 46.6418 12.669 48.3404 12.669Z" fill="white"/>
<path d="M56.7598 8.31156L58.3108 12.8905L60.4525 13.1859L61.3388 5.87438L59.5663 5.65281L58.9754 9.93635L57.4245 5.3574L55.4304 5.13583L54.3965 12.3735L56.169 12.5951L56.7598 8.31156Z" fill="white"/>
<path d="M66.8778 7.49917L65.1053 6.90833L62.8896 13.8506L64.6621 14.5153L66.8778 7.49917Z" fill="white"/>
<path d="M76.0358 11.5611L74.411 10.7488L70.866 14.3676L71.6046 9.41938L69.8321 8.38542L68.7242 16.214L70.6444 17.0264L76.0358 11.5611Z" fill="white"/>
<path d="M77.8822 22.1223L78.8423 20.8668L76.8482 19.242L77.6606 18.1342L79.5069 19.6113L80.5409 18.2819L78.6946 16.8048L79.3592 15.9185L81.3533 17.5433L82.4611 16.2878L78.8423 13.4814L74.3372 19.3158L77.8822 22.1223Z" fill="white"/>
<path d="M80.9839 25.1503L83.1257 23.3039L83.1995 23.4517C83.495 23.8209 83.495 23.8948 83.2734 24.3379L82.0917 26.5535L83.4211 28.1045L84.8243 25.2242C84.8982 25.1503 84.972 24.8549 84.972 24.6333C85.5629 24.9287 86.3014 24.781 86.9661 24.2641C88.5909 22.9347 87.3354 21.4576 86.3753 20.3498L85.1936 19.0204L79.6545 23.8209L80.9839 25.1503ZM85.3413 21.3837L85.4152 21.5314C85.7106 21.9007 85.9321 22.1961 85.9321 22.4916C85.9321 22.6393 85.8583 22.787 85.6367 22.8608C85.5629 23.0085 85.3413 23.0085 85.2675 23.0085C84.8982 23.0085 84.6028 22.6393 84.3812 22.4177L84.3074 22.27L85.3413 21.3837Z" fill="white"/>
<path d="M87.7786 31.0586C87.4094 31.3541 86.8924 30.9109 86.7447 30.5417C86.4493 30.0985 86.3754 29.6554 86.3754 29.1384V28.6953L84.6768 29.4339L84.7506 29.8031C84.8983 30.394 85.046 30.7632 85.3414 31.3541C85.9323 32.388 86.6708 32.905 87.5571 32.905C88.0002 32.905 88.2956 32.8311 88.7387 32.5357C89.9943 31.7972 89.8465 30.5417 89.6988 29.6554C89.625 29.0646 89.5511 28.6215 89.7727 28.4737C89.9204 28.3999 90.0681 28.3999 90.142 28.3999C90.5112 28.3999 90.7328 28.7692 90.8066 28.843C91.1021 29.2123 91.1759 29.5816 91.2498 30.0247L91.3236 30.394L92.8746 29.7293V29.5816C92.8007 29.0646 92.5053 28.5476 92.2099 27.9568C91.4713 26.6274 90.0681 26.1843 88.8864 26.9228C87.6309 27.6614 87.7786 28.9169 87.9263 29.7293C88.0002 30.394 88.074 30.8371 87.7786 31.0586Z" fill="white"/>
<path d="M94.6875 33.2179L87.9177 35.9795L88.6151 37.689L95.3849 34.9275L94.6875 33.2179Z" fill="white"/>
<path d="M95.3856 40.1427L89.8466 41.4721L90.2897 43.2446L95.9764 41.9152L96.3457 43.7615L97.8967 43.4661L96.4934 37.8532L94.9425 38.2963L95.3856 40.1427Z" fill="white"/>
<path d="M91.1021 48.6359L91.1759 50.4823L94.0562 50.3346L98.6352 52.6979L98.5613 50.63L95.8287 49.3745L98.3398 47.7497L98.192 45.5341L93.9824 48.5621L91.1021 48.6359Z" fill="white"/>
<path d="M10.3055 65.7701L11.8564 65.327L11.1918 63.1113L12.3734 62.8159L12.9643 65.1793L14.5152 64.6623L13.3335 60.6003L6.31738 62.6682L6.83436 64.4407L9.71467 63.5545L10.3055 65.7701Z" fill="white"/>
<path d="M16.8047 71.9C17.1002 71.0137 16.9524 70.1275 16.5093 69.1674C15.8446 67.838 14.8107 67.0995 13.4813 67.0995C12.8905 67.0995 12.2258 67.2472 11.4872 67.6165C10.3794 68.1334 9.71474 68.872 9.34547 69.8321C9.05005 70.7183 9.19776 71.6046 9.64088 72.5647C10.3056 73.8202 11.3395 74.6326 12.6689 74.6326C13.2597 74.6326 13.9244 74.4849 14.663 74.1156C15.8446 73.5248 16.5832 72.8601 16.8047 71.9ZM13.9983 72.3431C13.5552 72.6385 13.0382 72.7124 12.6689 72.7124C12.0042 72.7124 11.5611 72.417 11.3395 71.8261C11.1918 71.383 11.0441 71.0876 11.2657 70.7183C11.4134 70.2013 11.9304 69.6844 12.595 69.3889C13.0382 69.2412 13.4813 69.0197 13.8506 69.0197C14.5153 69.0197 14.9584 69.3151 15.1799 69.9059C15.3277 70.3491 15.4754 70.6445 15.2538 71.0137C15.0322 71.4569 14.5891 71.9738 13.9983 72.3431Z" fill="white"/>
<path d="M21.9006 77.5867L18.5771 80.2455C17.6909 80.9102 17.0262 80.984 16.5092 80.3932C16.3615 80.0978 16.2138 79.8762 16.2138 79.6547C16.2876 79.2854 16.5831 78.9161 17.1 78.473L20.4235 75.8142L19.2418 74.411L15.5491 77.2913C14.8106 77.8822 14.3674 78.5468 14.3674 79.3592C14.3674 80.0239 14.6628 80.6886 15.2537 81.501C15.9184 82.4611 16.6569 82.8304 17.5432 82.8304C18.134 82.8304 18.7248 82.535 19.3157 82.0918L23.0084 79.1377L21.9006 77.5867Z" fill="white"/>
<path d="M28.1044 83.4951L25.4457 86.8923L26.4058 82.1657L24.781 80.8363L20.1282 86.5231L21.6053 87.7047L24.3379 84.3075L23.3039 89.0341L24.8548 90.3635L29.5815 84.7506L28.1044 83.4951Z" fill="white"/>
<path d="M33.5696 86.9662L31.7232 86.0061L28.3998 92.5053L30.2461 93.4654C31.2062 93.9085 31.9448 94.1301 32.6833 94.1301C33.9388 94.1301 34.9728 93.4654 35.6375 92.0621C36.8192 89.9942 36.0806 88.2956 33.5696 86.9662ZM33.9388 91.3975C33.5696 92.136 32.9049 92.5791 32.1663 92.5791C31.7971 92.5791 31.5755 92.5053 31.2062 92.2837L30.7631 91.9883L32.6095 88.2217L33.0526 88.5171C33.5696 88.8126 33.9388 89.1818 34.0865 89.625C34.2343 90.2158 34.1604 90.7328 33.9388 91.3975Z" fill="white"/>
<path d="M37.6316 96.715L41.989 97.8966L42.4321 96.3457L39.8472 95.681L40.2165 94.3516L42.5798 94.9425L43.0229 93.3915L40.5858 92.8007L40.8812 91.619L43.4661 92.2837L43.8353 90.7328L39.5518 89.6988L37.6316 96.715Z" fill="white"/>
<path d="M48.4142 91.3975L46.2725 91.3236L45.8293 98.6352L47.9711 98.709C48.1188 98.709 48.3404 98.709 48.4881 98.709C50.9253 98.709 52.2547 97.5274 52.4024 95.2379C52.4762 94.1301 52.2547 93.17 51.6638 92.5053C50.9991 91.8406 49.9652 91.4713 48.4142 91.3975ZM48.3404 97.0842H47.8234L48.1188 92.9484H48.6358C49.6698 93.0223 50.6299 93.8346 50.4822 95.164C50.4083 96.5673 49.3743 97.0842 48.3404 97.0842Z" fill="white"/>
<path d="M58.9016 90.7328L57.6461 98.4875L59.6402 98.0443L59.9356 96.4196L62.2989 95.9026L63.259 97.3058L65.1792 96.9365L60.8218 90.4374L58.9016 90.7328ZM60.0833 94.8686L60.3787 92.8746L61.4127 94.4993L60.0833 94.8686Z" fill="white"/>
<path d="M65.8439 94.5732L66.5086 96.3457L68.2072 95.681L67.6164 93.9824L65.8439 94.5732Z" fill="white"/>
<path d="M69.389 87.1878L67.5426 88.2217L71.0138 94.647L72.8601 93.6131C75.2973 92.2837 75.8881 90.5851 74.8542 88.4433C73.7464 86.3015 71.9 85.8584 69.389 87.1878ZM72.417 92.0621L71.9739 92.3576L69.9798 88.6648L70.4229 88.3694C70.7183 88.2217 71.0138 88.074 71.383 88.074C72.1216 88.074 72.7124 88.5171 73.1555 89.1818C73.8202 90.5112 73.2294 91.619 72.417 92.0621Z" fill="white"/>
<path d="M76.2573 89.4773L77.3651 91.0282L78.8422 89.9204L77.8083 88.3694L76.2573 89.4773Z" fill="white"/>
<path d="M79.2114 80.0239L78.8422 82.9781L80.467 83.1996L80.6147 82.018L84.1597 85.4891L85.489 84.2336L80.3192 78.9161L79.2114 80.0239Z" fill="white"/>
<path d="M89.1818 76.2574C88.591 75.8142 87.9263 75.7404 87.1139 75.9619C87.1139 75.2973 86.7446 74.6326 86.2276 74.2633C85.2675 73.5986 84.0859 73.9679 83.1996 75.2234C82.3134 76.4051 82.4611 77.5867 83.495 78.3253C84.012 78.6945 84.6767 78.7684 85.2675 78.6207C85.1937 79.3592 85.4152 79.9501 86.0061 80.3932C86.4492 80.7625 86.8923 80.8363 87.2616 80.8363C88.0001 80.8363 88.6648 80.3932 89.4034 79.5808C89.9203 78.9161 90.1419 78.2514 90.068 77.5129C89.9942 77.0698 89.6249 76.6266 89.1818 76.2574ZM85.6368 76.7005C85.3414 76.8482 85.1198 77.0698 84.8982 77.0698C84.8244 77.0698 84.6028 77.0698 84.529 76.9959C84.1597 76.7005 84.3813 76.3312 84.529 76.0358C84.6028 75.8881 84.8244 75.7404 84.9721 75.7404C85.046 75.7404 85.2675 75.8142 85.4152 75.8881C85.6368 76.1835 85.7106 76.4789 85.6368 76.7005ZM88.1478 78.7684C87.8524 79.1377 87.4831 79.2115 87.1139 78.9161C86.8185 78.6207 86.6707 78.3991 86.7446 77.8821C87.2616 77.5129 87.7047 77.439 88.0001 77.7344C88.1478 77.8083 88.2955 78.0299 88.2955 78.1776C88.3694 78.3253 88.2955 78.6207 88.1478 78.7684Z" fill="white"/>
<path d="M92.4314 69.0935C91.1759 68.5027 89.9942 68.7981 89.4034 70.0536C89.2557 70.4229 89.108 70.7183 89.2557 71.0876C88.8126 70.7183 88.3694 70.1275 88.7387 69.3889C88.8864 69.0197 89.1818 68.7981 89.4034 68.5027L89.6988 68.355L88.3694 67.3949L88.2217 67.5426C87.8525 67.9119 87.5571 68.2811 87.2616 68.7981C86.8924 69.5367 86.8185 70.2013 87.1139 70.9399C87.557 72.1215 88.7387 73.0078 89.6988 73.3771C90.5851 73.8202 91.2498 73.9679 91.8406 73.9679C92.8007 73.9679 93.4654 73.5248 93.9824 72.6385C94.4993 71.1614 93.9824 69.8321 92.4314 69.0935ZM92.4314 71.8261C92.3576 72.1215 92.0622 72.1954 91.8406 72.1954C91.6929 72.1954 91.3975 72.1215 91.2498 72.0477C90.8805 71.9 90.6589 71.6046 90.5851 71.4569C90.5112 71.3092 90.5851 71.1614 90.5851 71.0137C90.6589 70.7183 90.8805 70.6445 91.1759 70.6445C91.3236 70.6445 91.619 70.7183 91.8406 70.7922C92.2099 70.9399 92.3576 71.1614 92.4314 71.383C92.5791 71.5307 92.4314 71.6784 92.4314 71.8261Z" fill="white"/>
<path d="M95.0901 61.6343C93.6869 61.1911 92.4313 61.9297 92.0621 63.2591C92.0621 63.4068 91.9882 63.5545 91.9882 63.6283L91.102 63.3329L91.8405 60.748L90.4373 60.3049L89.1818 64.5884L93.2437 65.8439V65.4747C93.2437 65.0316 93.3176 64.7361 93.3914 64.293C93.4653 63.9237 93.9084 63.1113 94.647 63.2591C95.5332 63.5545 95.3117 64.4407 95.2378 64.6623C95.0901 65.1793 94.7947 65.5485 94.5731 65.8439L94.2777 66.1394L95.9763 66.7302L96.0502 66.5825C96.3456 66.0655 96.5672 65.4747 96.7149 65.0316C97.0103 64.1453 97.0103 63.4068 96.641 62.7421C96.3456 62.2989 95.7548 61.8558 95.0901 61.6343Z" fill="white"/>
<path d="M41.3243 43.8354L40.9551 43.6138C38.8872 42.506 35.416 40.4381 35.416 38.8872V30.9109H47.4542V39.0349C47.4542 40.3642 44.2785 42.2845 41.6936 43.6877L41.3243 43.8354ZM36.8931 36.0807V38.961C37.0408 39.478 39.0349 40.9551 41.3243 42.1367C43.6877 40.8812 45.7556 39.478 45.9772 38.961V36.0807H36.8931ZM36.8931 34.6036H45.9772V32.3141H36.8931V34.6036Z" fill="white"/>
<path d="M51.7378 102.402C23.7471 102.402 1 79.6547 1 51.6639C1 23.6732 23.8209 1 51.7378 1C79.6547 1 102.476 23.7471 102.476 51.7378C102.476 79.7285 79.7285 102.402 51.7378 102.402ZM51.7378 2.47708C24.6333 2.47708 2.55094 24.5595 2.55094 51.7378C2.55094 78.9161 24.6333 100.998 51.8116 100.998C78.99 100.998 101.072 78.9161 101.072 51.7378C101.072 24.5595 78.9161 2.47708 51.7378 2.47708Z" fill="white"/>
<path d="M51.7377 88.7387C31.2801 88.7387 14.7368 72.1215 14.7368 51.7378C14.7368 31.3541 31.354 14.7369 51.7377 14.7369C72.1215 14.7369 88.8125 31.2802 88.8125 51.7378C88.8125 72.1215 72.1953 88.7387 51.7377 88.7387ZM51.7377 16.1401C32.0925 16.1401 16.14 32.0926 16.14 51.7378C16.14 71.383 32.0925 87.3355 51.7377 87.3355C71.383 87.3355 87.3354 71.3091 87.3354 51.7378C87.3354 32.1665 71.383 16.1401 51.7377 16.1401Z" fill="white"/>
<path d="M62.1513 43.8354L61.782 43.6138C59.6402 42.506 56.0952 40.4381 56.0952 38.8872V30.9109H68.1334V39.0349C68.1334 40.1427 66.2132 41.6936 62.4467 43.6877L62.1513 43.8354ZM57.5723 38.961C57.7939 39.478 59.7879 40.9551 62.1513 42.2106C64.4407 40.9551 66.4348 39.5519 66.7302 39.0349V38.0009L62.1513 35.0468L57.5723 38.0009V38.961ZM62.1513 33.2004L66.7302 36.1546V32.3141H57.5723V36.1546L62.1513 33.2004Z" fill="white"/>
<path d="M49.1133 55.6867L44.0225 55.9186L44.0997 57.6155L49.1906 57.3837L49.1133 55.6867Z" fill="white"/>
<path d="M49.1131 60.3396L44.0222 60.5703L44.0991 62.2673L49.19 62.0365L49.1131 60.3396Z" fill="white"/>
<path d="M49.1132 65.0665L44.0223 65.2972L44.0993 66.9942L49.1901 66.7634L49.1132 65.0665Z" fill="white"/>
<path d="M41.1027 56.686H38.2224V59.0494H41.1027V56.686Z" fill="white"/>
<path d="M41.1027 63.4068H38.2224V65.7701H41.1027V63.4068Z" fill="white"/>
<path d="M51.0731 70.7922C50.9993 70.7183 50.0391 70.0536 49.4483 70.1275C46.4203 70.6445 41.4721 70.4968 41.2505 70.4968H40.512V52.1809L41.3244 52.2548C41.3982 52.2548 45.2386 52.6979 48.7098 52.0332C49.8914 51.7378 51.147 52.0332 51.7378 52.2548C52.3286 52.0332 53.7319 51.7378 54.9135 52.0332C58.3847 52.6241 62.2251 52.2548 62.2989 52.2548L63.1113 52.1809V70.4968H62.3728C62.1512 70.4968 57.0553 70.6445 54.0273 70.1275C53.3626 69.9798 52.5502 70.6445 52.3286 70.7922L51.7378 71.2353L51.0731 70.7922ZM49.7437 68.6504C50.63 68.5765 51.2208 69.0197 51.6639 69.3151C52.1809 68.9458 53.2887 68.4288 54.3227 68.6504C56.5383 69.0197 60.0833 69.0197 61.6342 69.0197V53.8057C60.231 53.9534 57.3507 54.0273 54.6181 53.5103H54.5442C53.4364 53.2149 51.9594 53.7319 51.9594 53.7319L51.5901 53.8057H51.5162C51.5162 53.8057 50.113 53.2149 49.0052 53.5103H48.9313C46.1987 54.0273 43.3184 53.8796 41.9152 53.8057V69.0197C43.3923 69.0197 46.9373 69.0197 49.2268 68.6504C49.596 68.6504 49.596 68.6504 49.7437 68.6504Z" fill="white"/>
<path d="M54.5258 60.3404L54.4487 62.0373L59.5396 62.2685L59.6166 60.5716L54.5258 60.3404Z" fill="white"/>
<path d="M54.5573 64.9925L54.4802 66.6894L59.5711 66.9207L59.6481 65.2237L54.5573 64.9925Z" fill="white"/>
<path d="M65.3268 56.686H62.5942V59.0494H65.3268V56.686Z" fill="white"/>
<path d="M65.3268 63.4068H62.5942V65.7701H65.3268V63.4068Z" fill="white"/>
<path d="M54.5478 55.7796L54.4835 57.477L59.5759 57.6699L59.6402 55.9724L54.5478 55.7796Z" fill="white"/>
<path d="M51.664 85.4891L51.3685 85.3414C51.147 85.1937 45.6079 82.7565 39.995 78.3991C32.388 72.5647 28.3261 66.1393 28.1783 59.7879C28.4738 46.2726 28.2522 28.326 28.2522 28.1045V27.3659H75.3711V28.1045C75.3711 28.326 75.2973 46.4941 75.2973 59.7879C75.2973 66.1393 71.2353 72.5647 63.5545 78.3991C57.8677 82.7565 52.1809 85.2676 51.9594 85.3414L51.664 85.4891ZM52.4025 47.2327V83.4951C56.8338 81.3533 73.7464 72.1954 73.7464 59.714C73.7464 55.7998 73.7464 51.3685 73.7464 47.1588L52.4025 47.2327ZM29.8031 47.2327C29.8031 51.4424 29.7293 55.7998 29.6554 59.7879C29.8031 67.0994 35.8592 73.377 40.8813 77.2175C44.9432 80.3932 49.0791 82.6088 50.9254 83.4951V47.2327H29.8031ZM29.8031 45.7556H73.8202C73.8202 38.0009 73.8941 31.0586 73.8941 28.7692H29.7293C29.7293 31.0586 29.8031 37.9271 29.8031 45.7556Z" fill="white"/>
</svg>
